rosario_bold-italic.sfdir
StartChar: exclam
Encoding: 33 33 246
Width: 246
GlyphClass: 2
Flags: W
LayerCount: 2
Back
Fore
SplineSet
264 680 m 0,0,1
 264 671 264 671 263 667 c 2,2,-1
 169 209 l 1,3,-1
 81 222 l 1,4,-1
 117 688 l 2,5,6
 119 706 119 706 126 714 c 128,-1,7
 133 722 133 722 150 722 c 0,8,9
 165 722 165 722 230 712 c 0,10,11
 264 706 264 706 264 680 c 0,0,1
98 -15 m 0,12,13
 67 -15 67 -15 44 8 c 128,-1,14
 21 31 21 31 21 62 c 0,15,16
 21 94 21 94 43.5 117 c 128,-1,17
 66 140 66 140 98 140 c 256,18,19
 130 140 130 140 153 117 c 128,-1,20
 176 94 176 94 176 62 c 128,-1,21
 176 30 176 30 153 7.5 c 128,-1,22
 130 -15 130 -15 98 -15 c 0,12,13
EndSplineSet
EndChar
StartChar: quotedbl
Encoding: 34 34 247
Width: 300
GlyphClass: 2
Flags: W
LayerCount: 2
Back
Fore
SplineSet
317 732 m 1,0,-1
 293 559 l 1,1,2
 250 473 250 473 241 449 c 1,3,-1
 219 449 l 2,4,5
 219 452 219 452 213.5 479.5 c 128,-1,6
 208 507 208 507 203.5 532.5 c 128,-1,7
 199 558 199 558 199 559 c 2,8,-1
 223 732 l 1,9,-1
 317 732 l 1,0,-1
170 732 m 1,10,-1
 146 559 l 1,11,12
 103 473 103 473 94 449 c 1,13,-1
 73 449 l 2,14,15
 73 452 73 452 67.5 479.5 c 128,-1,16
 62 507 62 507 57 533 c 2,17,-1
 52 559 l 1,18,-1
 76 732 l 1,19,-1
 170 732 l 1,10,-1
EndSplineSet
EndChar
StartChar: numbersign
Encoding: 35 35 245
Width: 640
GlyphClass: 2
Flags: W
LayerCount: 2
Back
Fore
SplineSet
582 425 m 1,0,-1
 468 425 l 1,1,-1
 450 297 l 1,2,-1
 556 297 l 1,3,-1
 556 208 l 1,4,-1
 438 208 l 1,5,-1
 410 0 l 1,6,-1
 321 0 l 1,7,-1
 349 208 l 1,8,-1
 255 208 l 1,9,-1
 227 0 l 1,10,-1
 138 0 l 1,11,-1
 166 208 l 1,12,-1
 60 208 l 1,13,-1
 60 297 l 1,14,-1
 178 297 l 1,15,-1
 196 425 l 1,16,-1
 86 425 l 1,17,-1
 86 514 l 1,18,-1
 208 514 l 1,19,-1
 237 732 l 1,20,-1
 326 732 l 1,21,-1
 297 514 l 1,22,-1
 391 514 l 1,23,-1
 420 732 l 1,24,-1
 509 732 l 1,25,-1
 480 514 l 1,26,-1
 582 514 l 1,27,-1
 582 425 l 1,0,-1
379 425 m 1,28,-1
 285 425 l 1,29,-1
 267 297 l 1,30,-1
 361 297 l 1,31,-1
 379 425 l 1,28,-1
EndSplineSet
EndChar
StartChar: dollar
Encoding: 36 36 4
Width: 430
GlyphClass: 2
Flags: W
LayerCount: 2
Back
Fore
SplineSet
373 180 m 0,0,1
 373 101 373 101 323 47 c 128,-1,2
 273 -7 273 -7 185 -13 c 1,3,-1
 160 -125 l 1,4,-1
 91 -125 l 1,5,-1
 136 -12 l 1,6,7
 66 -5 66 -5 11 29 c 1,8,-1
 63 111 l 1,9,10
 123 71 123 71 165 71 c 0,11,12
 198 71 198 71 221.5 90 c 128,-1,13
 245 109 245 109 245 144 c 0,14,15
 245 167 245 167 226.5 182.5 c 128,-1,16
 208 198 208 198 181 208.5 c 128,-1,17
 154 219 154 219 127 231.5 c 128,-1,18
 100 244 100 244 81.5 269.5 c 128,-1,19
 63 295 63 295 63 332 c 0,20,21
 63 412 63 412 121.5 459 c 128,-1,22
 180 506 180 506 256 510 c 1,23,-1
 280 624 l 1,24,-1
 348 624 l 1,25,-1
 304 508 l 1,26,27
 367 500 367 500 404 479 c 1,28,-1
 354 395 l 1,29,30
 315 429 315 429 264 429 c 0,31,32
 235 429 235 429 213 414 c 128,-1,33
 191 399 191 399 191 369 c 0,34,35
 191 348 191 348 209.5 333 c 128,-1,36
 228 318 228 318 255 307.5 c 128,-1,37
 282 297 282 297 309 284 c 128,-1,38
 336 271 336 271 354.5 245 c 128,-1,39
 373 219 373 219 373 180 c 0,0,1
EndSplineSet
EndChar
StartChar: percent
Encoding: 37 37 5
Width: 791
GlyphClass: 3
Flags: W
LayerCount: 2
Back
Fore
SplineSet
764 245 m 0,0,1
 764 145 764 145 712.5 70.5 c 128,-1,2
 661 -4 661 -4 566 -4 c 0,3,4
 494 -4 494 -4 458 40 c 128,-1,5
 422 84 422 84 422 157 c 0,6,7
 422 257 422 257 473.5 331 c 128,-1,8
 525 405 525 405 620 405 c 0,9,10
 692 405 692 405 728 361.5 c 128,-1,11
 764 318 764 318 764 245 c 0,0,1
638 699 m 1,12,-1
 214 -12 l 1,13,-1
 147 -12 l 1,14,-1
 540 645 l 1,15,-1
 353 645 l 1,16,17
 373 608 373 608 373 554 c 0,18,19
 373 454 373 454 321.5 379 c 128,-1,20
 270 304 270 304 174 304 c 0,21,22
 103 304 103 304 66.5 348 c 128,-1,23
 30 392 30 392 30 465 c 0,24,25
 30 565 30 565 81.5 639 c 128,-1,26
 133 713 133 713 229 713 c 0,27,28
 269 713 269 713 298 699 c 1,29,-1
 638 699 l 1,12,-1
661 247 m 0,30,31
 661 326 661 326 610 326 c 0,32,33
 585 326 585 326 567.5 307 c 128,-1,34
 550 288 550 288 541 259 c 128,-1,35
 532 230 532 230 528.5 204 c 128,-1,36
 525 178 525 178 525 155 c 0,37,38
 525 75 525 75 576 75 c 0,39,40
 601 75 601 75 618.5 94 c 128,-1,41
 636 113 636 113 645 142 c 128,-1,42
 654 171 654 171 657.5 197.5 c 128,-1,43
 661 224 661 224 661 247 c 0,30,31
270 555 m 0,44,45
 270 634 270 634 218 634 c 0,46,47
 193 634 193 634 175.5 615.5 c 128,-1,48
 158 597 158 597 149.5 567.5 c 128,-1,49
 141 538 141 538 137.5 512 c 128,-1,50
 134 486 134 486 134 463 c 0,51,52
 134 383 134 383 185 383 c 0,53,54
 210 383 210 383 227.5 402 c 128,-1,55
 245 421 245 421 254 450 c 128,-1,56
 263 479 263 479 266.5 505.5 c 128,-1,57
 270 532 270 532 270 555 c 0,44,45
EndSplineSet
Ligature2: "Ligature Substitution lookup 6 subtable" zero fraction zero
Ligature2: "Ligature Substitution lookup 6 subtable" zero slash zero
EndChar
StartChar: ampersand
Encoding: 38 38 6
Width: 642
GlyphClass: 2
Flags: W
LayerCount: 2
Back
Fore
SplineSet
649 312 m 1,0,1
 649 202 649 202 528 202 c 1,2,3
 484 93 484 93 407 40.5 c 128,-1,4
 330 -12 330 -12 213 -12 c 0,5,6
 116 -12 116 -12 58 37.5 c 128,-1,7
 0 87 0 87 0 182 c 0,8,9
 0 246 0 246 30 302.5 c 128,-1,10
 60 359 60 359 112 400 c 1,11,12
 91 439 91 439 91 479 c 0,13,14
 91 550 91 550 134 600.5 c 128,-1,15
 177 651 177 651 238 672.5 c 128,-1,16
 299 694 299 694 368 694 c 0,17,18
 422 694 422 694 475.5 674 c 128,-1,19
 529 654 529 654 563 616 c 1,20,-1
 503 555 l 1,21,22
 478 580 478 580 441.5 597.5 c 128,-1,23
 405 615 405 615 373 615 c 0,24,25
 305 615 305 615 257 575 c 128,-1,26
 209 535 209 535 209 469 c 0,27,28
 209 459 209 459 210 454 c 1,29,30
 264 473 264 473 315 473 c 0,31,32
 365 473 365 473 401 455 c 128,-1,33
 437 437 437 437 437 392 c 0,34,35
 437 349 437 349 389.5 324.5 c 128,-1,36
 342 300 342 300 294 300 c 0,37,38
 226 300 226 300 177 331 c 1,39,40
 132 270 132 270 132 197 c 0,41,42
 132 142 132 142 163 112.5 c 128,-1,43
 194 83 194 83 250 83 c 0,44,45
 356 83 356 83 411 159 c 0,46,47
 426 183 426 183 426 195 c 0,48,49
 426 220 426 220 398 220 c 0,50,51
 386 220 386 220 376.5 212 c 128,-1,52
 367 204 367 204 365 192 c 1,53,-1
 287 192 l 1,54,55
 287 243 287 243 320 267 c 128,-1,56
 353 291 353 291 406 291 c 1,57,-1
 532 279 l 2,58,59
 547 279 547 279 558.5 288.5 c 128,-1,60
 570 298 570 298 571 312 c 1,61,-1
 649 312 l 1,0,1
341 391 m 0,62,63
 341 407 341 407 310 407 c 0,64,65
 274 407 274 407 243 389 c 1,66,67
 264 371 264 371 290 371 c 0,68,69
 304 371 304 371 322.5 376 c 128,-1,70
 341 381 341 381 341 391 c 0,62,63
EndSplineSet
EndChar
StartChar: quotesingle
Encoding: 39 39 7
Width: 157
GlyphClass: 2
Flags: W
LayerCount: 2
Back
Fore
SplineSet
170 732 m 1,0,-1
 146 559 l 1,1,2
 103 473 103 473 94 449 c 1,3,-1
 73 449 l 2,4,5
 73 452 73 452 67.5 479.5 c 128,-1,6
 62 507 62 507 57 533 c 2,7,-1
 52 559 l 1,8,-1
 76 732 l 1,9,-1
 170 732 l 1,0,-1
EndSplineSet
EndChar
StartChar: parenleft
Encoding: 40 40 8
Width: 323
GlyphClass: 2
Flags: W
LayerCount: 2
Back
Fore
SplineSet
379 727 m 1,0,1
 267 607 267 607 212 480.5 c 128,-1,2
 157 354 157 354 157 199 c 0,3,4
 157 31 157 31 265 -130 c 1,5,-1
 172 -146 l 1,6,7
 45 30 45 30 45 222 c 0,8,9
 45 494 45 494 290 743 c 1,10,-1
 379 727 l 1,0,1
EndSplineSet
EndChar
StartChar: parenright
Encoding: 41 41 9
Width: 328
GlyphClass: 2
Flags: W
LayerCount: 2
Back
Fore
SplineSet
313 375 m 0,0,1
 313 103 313 103 68 -146 c 1,2,-1
 -21 -130 l 1,3,4
 90 -11 90 -11 145.5 115.5 c 128,-1,5
 201 242 201 242 201 397 c 0,6,7
 201 563 201 563 94 727 c 1,8,-1
 186 743 l 1,9,10
 313 567 313 567 313 375 c 0,0,1
EndSplineSet
EndChar
StartChar: asterisk
Encoding: 42 42 10
Width: 405
GlyphClass: 2
Flags: W
LayerCount: 2
Back
Fore
SplineSet
456 555 m 1,0,-1
 295 528 l 1,1,-1
 394 422 l 1,2,-1
 296 353 l 1,3,-1
 244 494 l 1,4,-1
 154 356 l 1,5,-1
 77 420 l 1,6,-1
 204 531 l 1,7,-1
 54 552 l 1,8,-1
 98 659 l 1,9,-1
 228 585 l 1,10,-1
 221 741 l 1,11,-1
 332 741 l 1,12,-1
 285 585 l 1,13,-1
 430 663 l 1,14,-1
 456 555 l 1,0,-1
EndSplineSet
EndChar
StartChar: comma
Encoding: 44 44 12
Width: 235
GlyphClass: 2
Flags: W
LayerCount: 2
Back
Fore
SplineSet
181 62 m 0,0,1
 181 7 181 7 138 -45 c 128,-1,2
 95 -97 95 -97 38 -134 c 1,3,-1
 5 -93 l 1,4,5
 61 -46 61 -46 61 -16 c 0,6,7
 61 -10 61 -10 43 11.5 c 128,-1,8
 25 33 25 33 25 59 c 0,9,10
 25 93 25 93 48.5 116 c 128,-1,11
 72 139 72 139 104 139 c 0,12,13
 138 139 138 139 159.5 116.5 c 128,-1,14
 181 94 181 94 181 62 c 0,0,1
EndSplineSet
EndChar
StartChar: period
Encoding: 46 46 14
Width: 215
GlyphClass: 2
Flags: W
LayerCount: 2
Back
Fore
SplineSet
107 -12 m 0,0,1
 76 -12 76 -12 53 11 c 128,-1,2
 30 34 30 34 30 65 c 0,3,4
 30 97 30 97 52.5 120 c 128,-1,5
 75 143 75 143 107 143 c 256,6,7
 139 143 139 143 162 120 c 128,-1,8
 185 97 185 97 185 65 c 128,-1,9
 185 33 185 33 162 10.5 c 128,-1,10
 139 -12 139 -12 107 -12 c 0,0,1
EndSplineSet
EndChar
StartChar: zero
Encoding: 48 48 16
Width: 578
GlyphClass: 2
Flags: W
LayerCount: 2
Back
Fore
SplineSet
539 301 m 0,0,1
 539 238 539 238 523 183.5 c 128,-1,2
 507 129 507 129 474 84 c 128,-1,3
 441 39 441 39 384.5 13.5 c 128,-1,4
 328 -12 328 -12 254 -12 c 0,5,6
 151 -12 151 -12 94.5 43 c 128,-1,7
 38 98 38 98 38 197 c 0,8,9
 38 344 38 344 115.5 427 c 128,-1,10
 193 510 193 510 323 510 c 0,11,12
 428 510 428 510 483.5 455.5 c 128,-1,13
 539 401 539 401 539 301 c 0,0,1
265 69 m 0,14,15
 307 69 307 69 338 90.5 c 128,-1,16
 369 112 369 112 385 148.5 c 128,-1,17
 401 185 401 185 408 223 c 128,-1,18
 415 261 415 261 415 303 c 0,19,20
 415 429 415 429 312 429 c 0,21,22
 269 429 269 429 237.5 406 c 128,-1,23
 206 383 206 383 190.5 345 c 128,-1,24
 175 307 175 307 168 268.5 c 128,-1,25
 161 230 161 230 161 189 c 0,26,27
 161 69 161 69 265 69 c 0,14,15
EndSplineSet
EndChar
StartChar: one
Encoding: 49 49 17
Width: 383
GlyphClass: 2
Flags: W
LayerCount: 2
Back
Fore
SplineSet
328 0 m 1,0,-1
 11 0 l 1,1,-1
 24 99 l 1,2,-1
 127 99 l 1,3,-1
 163 378 l 1,4,-1
 57 349 l 1,5,-1
 45 413 l 1,6,-1
 220 498 l 1,7,-1
 294 498 l 1,8,-1
 242 99 l 1,9,-1
 341 99 l 1,10,-1
 328 0 l 1,0,-1
EndSplineSet
EndChar
StartChar: two
Encoding: 50 50 18
Width: 465
GlyphClass: 2
Flags: W
LayerCount: 2
Back
Fore
SplineSet
432 99 m 1,0,-1
 392 0 l 1,1,-1
 13 0 l 1,2,-1
 13 54 l 1,3,4
 59 98 59 98 146.5 189 c 128,-1,5
 234 280 234 280 251 297 c 0,6,7
 291 337 291 337 291 373 c 0,8,9
 291 395 291 395 277 408 c 128,-1,10
 263 421 263 421 241 421 c 0,11,12
 186 421 186 421 114 355 c 1,13,-1
 65 419 l 1,14,15
 176 512 176 512 286 512 c 0,16,17
 346 512 346 512 388 482 c 128,-1,18
 430 452 430 452 430 395 c 0,19,20
 430 321 430 321 362 256 c 0,21,22
 339 234 339 234 183 99 c 1,23,-1
 432 99 l 1,0,-1
EndSplineSet
EndChar
StartChar: three
Encoding: 51 51 19
Width: 410
GlyphClass: 2
Flags: W
LayerCount: 2
Back
Fore
SplineSet
365 112 m 0,0,1
 365 50 365 50 336 -2.5 c 128,-1,2
 307 -55 307 -55 260 -90 c 128,-1,3
 213 -125 213 -125 152.5 -150 c 128,-1,4
 92 -175 92 -175 30.5 -186.5 c 128,-1,5
 -31 -198 -31 -198 -90 -198 c 2,6,-1
 -98 -198 l 1,7,-1
 -102 -128 l 1,8,9
 -51 -126 -51 -126 -0.5 -116 c 128,-1,10
 50 -106 50 -106 105.5 -83.5 c 128,-1,11
 161 -61 161 -61 195.5 -16 c 128,-1,12
 230 29 230 29 230 90 c 0,13,14
 230 148 230 148 171 148 c 0,15,16
 140 148 140 148 103 134 c 1,17,-1
 78 206 l 1,18,19
 138 233 138 233 193.5 286.5 c 128,-1,20
 249 340 249 340 249 394 c 0,21,22
 249 428 249 428 218 428 c 0,23,24
 173 428 173 428 118 379 c 1,25,-1
 72 435 l 1,26,27
 106 471 106 471 159.5 491 c 128,-1,28
 213 511 213 511 262 511 c 0,29,30
 313 511 313 511 348.5 489 c 128,-1,31
 384 467 384 467 384 421 c 0,32,33
 384 363 384 363 328 309.5 c 128,-1,34
 272 256 272 256 204 223 c 1,35,36
 224 225 224 225 234 225 c 0,37,38
 294 225 294 225 329.5 196.5 c 128,-1,39
 365 168 365 168 365 112 c 0,0,1
EndSplineSet
EndChar
StartChar: four
Encoding: 52 52 20
Width: 497
GlyphClass: 2
Flags: W
LayerCount: 2
Back
Fore
SplineSet
502 99 m 1,0,-1
 485 -1 l 1,1,-1
 390 -1 l 1,2,-1
 366 -184 l 1,3,-1
 247 -184 l 1,4,-1
 271 -1 l 1,5,-1
 1 -1 l 1,6,-1
 1 57 l 1,7,-1
 331 498 l 1,8,-1
 455 498 l 1,9,-1
 403 99 l 1,10,-1
 502 99 l 1,0,-1
284 99 m 1,11,-1
 314 329 l 1,12,-1
 143 99 l 1,13,-1
 284 99 l 1,11,-1
EndSplineSet
EndChar
StartChar: five
Encoding: 53 53 21
Width: 372
GlyphClass: 2
Flags: W
LayerCount: 2
Back
Fore
SplineSet
386 498 m 1,0,-1
 353 377 l 1,1,-1
 175 377 l 1,2,-1
 154 327 l 1,3,4
 321 229 321 229 321 82 c 0,5,6
 321 20 321 20 292 -33 c 128,-1,7
 263 -86 263 -86 216 -121 c 128,-1,8
 169 -156 169 -156 115 -177.5 c 128,-1,9
 61 -199 61 -199 4 -207 c 1,10,-1
 -17 -145 l 1,11,12
 72 -117 72 -117 133.5 -62.5 c 128,-1,13
 195 -8 195 -8 195 77 c 0,14,15
 195 137 195 137 142.5 190.5 c 128,-1,16
 90 244 90 244 26 273 c 1,17,-1
 123 498 l 1,18,-1
 386 498 l 1,0,-1
EndSplineSet
EndChar
StartChar: six
Encoding: 54 54 22
Width: 536
GlyphClass: 2
Flags: W
LayerCount: 2
Back
Fore
SplineSet
482 246 m 0,0,1
 482 143 482 143 409.5 65.5 c 128,-1,2
 337 -12 337 -12 225 -12 c 0,3,4
 129 -12 129 -12 73 46.5 c 128,-1,5
 17 105 17 105 17 201 c 0,6,7
 17 280 17 280 46 353 c 128,-1,8
 75 426 75 426 126 485 c 128,-1,9
 177 544 177 544 236.5 590 c 128,-1,10
 296 636 296 636 366 672 c 0,11,12
 452 716 452 716 507 730 c 1,13,-1
 525 665 l 1,14,15
 429 632 429 632 336 554 c 128,-1,16
 243 476 243 476 190 384 c 1,17,18
 249 421 249 421 305 421 c 0,19,20
 385 421 385 421 433.5 373 c 128,-1,21
 482 325 482 325 482 246 c 0,0,1
234 71 m 0,22,23
 289 71 289 71 321 121.5 c 128,-1,24
 353 172 353 172 353 233 c 0,25,26
 353 277 353 277 332 306 c 128,-1,27
 311 335 311 335 269 335 c 0,28,29
 210 335 210 335 157 282 c 1,30,31
 145 234 145 234 145 198 c 0,32,33
 145 145 145 145 166.5 108 c 128,-1,34
 188 71 188 71 234 71 c 0,22,23
EndSplineSet
EndChar
StartChar: seven
Encoding: 55 55 23
Width: 425
GlyphClass: 2
Flags: W
LayerCount: 2
Back
Fore
SplineSet
417 434 m 1,0,-1
 146 -189 l 1,1,-1
 17 -189 l 1,2,-1
 274 386 l 1,3,-1
 0 386 l 1,4,-1
 30 497 l 1,5,-1
 417 497 l 1,6,-1
 417 434 l 1,0,-1
EndSplineSet
EndChar
StartChar: eight
Encoding: 56 56 24
Width: 461
GlyphClass: 2
Flags: W
LayerCount: 2
Back
Fore
SplineSet
429 202 m 0,0,1
 429 108 429 108 364 48 c 128,-1,2
 299 -12 299 -12 194 -12 c 0,3,4
 117 -12 117 -12 64 29.5 c 128,-1,5
 11 71 11 71 11 146 c 0,6,7
 11 171 11 171 14.5 192 c 128,-1,8
 18 213 18 213 29 232.5 c 128,-1,9
 40 252 40 252 47 265 c 128,-1,10
 54 278 54 278 74 296.5 c 128,-1,11
 94 315 94 315 101.5 322 c 128,-1,12
 109 329 109 329 134.5 349 c 128,-1,13
 160 369 160 369 166 374 c 1,14,-1
 159 381 l 2,15,16
 132 411 132 411 119 427.5 c 128,-1,17
 106 444 106 444 95 472 c 128,-1,18
 84 500 84 500 84 532 c 0,19,20
 84 622 84 622 146.5 677 c 128,-1,21
 209 732 209 732 292 732 c 0,22,23
 363 732 363 732 410.5 695.5 c 128,-1,24
 458 659 458 659 458 593 c 0,25,26
 458 567 458 567 452 543.5 c 128,-1,27
 446 520 446 520 440.5 505.5 c 128,-1,28
 435 491 435 491 417 470.5 c 128,-1,29
 399 450 399 450 393 443.5 c 128,-1,30
 387 437 387 437 360.5 414.5 c 128,-1,31
 334 392 334 392 329 388 c 1,32,33
 333 383 333 383 341 375 c 0,34,35
 372 341 372 341 386.5 322.5 c 128,-1,36
 401 304 401 304 415 271 c 128,-1,37
 429 238 429 238 429 202 c 0,0,1
269 456 m 0,38,39
 295 476 295 476 309.5 489.5 c 128,-1,40
 324 503 324 503 337.5 528.5 c 128,-1,41
 351 554 351 554 351 583 c 0,42,43
 351 613 351 613 337 633 c 128,-1,44
 323 653 323 653 293 653 c 0,45,46
 259 653 259 653 236.5 622.5 c 128,-1,47
 214 592 214 592 214 554 c 0,48,49
 214 545 214 545 215.5 537 c 128,-1,50
 217 529 217 529 221 520.5 c 128,-1,51
 225 512 225 512 227.5 507 c 128,-1,52
 230 502 230 502 237 493 c 128,-1,53
 244 484 244 484 246.5 481 c 128,-1,54
 249 478 249 478 258 468 c 128,-1,55
 267 458 267 458 269 456 c 0,38,39
198 69 m 0,56,57
 241 69 241 69 271 103 c 128,-1,58
 301 137 301 137 301 181 c 0,59,60
 301 196 301 196 296.5 210 c 128,-1,61
 292 224 292 224 282 238.5 c 128,-1,62
 272 253 272 253 265 261.5 c 128,-1,63
 258 270 258 270 243.5 286 c 128,-1,64
 229 302 229 302 225 306 c 1,65,66
 221 303 221 303 200.5 286.5 c 128,-1,67
 180 270 180 270 174 264.5 c 128,-1,68
 168 259 168 259 153.5 244 c 128,-1,69
 139 229 139 229 134 218 c 128,-1,70
 129 207 129 207 123.5 190 c 128,-1,71
 118 173 118 173 118 154 c 0,72,73
 118 116 118 116 139.5 92.5 c 128,-1,74
 161 69 161 69 198 69 c 0,56,57
EndSplineSet
EndChar
StartChar: nine
Encoding: 57 57 25
Width: 536
GlyphClass: 2
Flags: W
LayerCount: 2
Back
Fore
SplineSet
517 297 m 0,0,1
 517 204 517 204 474 119 c 128,-1,2
 431 34 431 34 360 -30 c 128,-1,3
 289 -94 289 -94 203 -140.5 c 128,-1,4
 117 -187 117 -187 24 -214 c 1,5,-1
 7 -149 l 1,6,7
 107 -115 107 -115 198.5 -45 c 128,-1,8
 290 25 290 25 344 115 c 1,9,10
 285 78 285 78 229 78 c 0,11,12
 149 78 149 78 100.5 125.5 c 128,-1,13
 52 173 52 173 52 252 c 0,14,15
 52 361 52 361 130.5 436 c 128,-1,16
 209 511 209 511 310 511 c 0,17,18
 406 511 406 511 461.5 452 c 128,-1,19
 517 393 517 393 517 297 c 0,0,1
378 217 m 1,20,21
 389 265 389 265 389 301 c 0,22,23
 389 354 389 354 367.5 391 c 128,-1,24
 346 428 346 428 300 428 c 0,25,26
 245 428 245 428 213.5 376.5 c 128,-1,27
 182 325 182 325 182 266 c 0,28,29
 182 222 182 222 203 193 c 128,-1,30
 224 164 224 164 266 164 c 0,31,32
 323 164 323 164 378 217 c 1,20,21
EndSplineSet
EndChar
StartChar: colon
Encoding: 58 58 26
Width: 247
GlyphClass: 2
Flags: W
LayerCount: 2
Back
Fore
SplineSet
100 -12 m 0,0,1
 69 -12 69 -12 46 11 c 128,-1,2
 23 34 23 34 23 65 c 0,3,4
 23 97 23 97 45.5 120 c 128,-1,5
 68 143 68 143 100 143 c 256,6,7
 132 143 132 143 155 120 c 128,-1,8
 178 97 178 97 178 65 c 128,-1,9
 178 33 178 33 155 10.5 c 128,-1,10
 132 -12 132 -12 100 -12 c 0,0,1
145 277 m 0,11,12
 114 277 114 277 91 300 c 128,-1,13
 68 323 68 323 68 354 c 0,14,15
 68 386 68 386 90.5 409 c 128,-1,16
 113 432 113 432 145 432 c 256,17,18
 177 432 177 432 200 409 c 128,-1,19
 223 386 223 386 223 354 c 128,-1,20
 223 322 223 322 200 299.5 c 128,-1,21
 177 277 177 277 145 277 c 0,11,12
EndSplineSet
EndChar
StartChar: semicolon
Encoding: 59 59 27
Width: 253
GlyphClass: 2
Flags: W
LayerCount: 2
Back
Fore
SplineSet
145 277 m 0,0,1
 114 277 114 277 91 300 c 128,-1,2
 68 323 68 323 68 354 c 0,3,4
 68 386 68 386 90.5 409 c 128,-1,5
 113 432 113 432 145 432 c 256,6,7
 177 432 177 432 200 409 c 128,-1,8
 223 386 223 386 223 354 c 128,-1,9
 223 322 223 322 200 299.5 c 128,-1,10
 177 277 177 277 145 277 c 0,0,1
181 62 m 0,11,12
 181 7 181 7 138 -45 c 128,-1,13
 95 -97 95 -97 38 -134 c 1,14,-1
 5 -93 l 1,15,16
 61 -46 61 -46 61 -16 c 0,17,18
 61 -10 61 -10 43 11.5 c 128,-1,19
 25 33 25 33 25 59 c 0,20,21
 25 93 25 93 48.5 116 c 128,-1,22
 72 139 72 139 104 139 c 0,23,24
 138 139 138 139 159.5 116.5 c 128,-1,25
 181 94 181 94 181 62 c 0,11,12
EndSplineSet
EndChar
StartChar: equal
Encoding: 61 61 29
Width: 630
GlyphClass: 2
Flags: W
LayerCount: 2
Back
Fore
SplineSet
564 109 m 1,0,-1
 68 109 l 1,1,-1
 68 197 l 1,2,-1
 564 197 l 1,3,-1
 564 109 l 1,0,-1
564 302 m 1,4,-1
 68 302 l 1,5,-1
 68 390 l 1,6,-1
 564 390 l 1,7,-1
 564 302 l 1,4,-1
EndSplineSet
EndChar
StartChar: greater
Encoding: 62 62 30
Width: 630
GlyphClass: 2
Flags: W
LayerCount: 2
Back
Fore
SplineSet
564 223 m 1,0,-1
 66 -12 l 1,1,-1
 66 76 l 1,2,-1
 434 249 l 1,3,-1
 66 419 l 1,4,-1
 66 509 l 1,5,-1
 564 275 l 1,6,-1
 564 223 l 1,0,-1
EndSplineSet
EndChar
StartChar: question
Encoding: 63 63 31
Width: 385
GlyphClass: 2
Flags: W
LayerCount: 2
Back
Fore
SplineSet
405 601 m 0,0,1
 405 552 405 552 379 514 c 128,-1,2
 353 476 353 476 316.5 454 c 128,-1,3
 280 432 280 432 243 415 c 128,-1,4
 206 398 206 398 180 379.5 c 128,-1,5
 154 361 154 361 154 341 c 0,6,7
 154 312 154 312 191 301 c 128,-1,8
 228 290 228 290 266 290 c 2,9,-1
 281 290 l 1,10,-1
 255 197 l 1,11,12
 203 200 203 200 158 213.5 c 128,-1,13
 113 227 113 227 76.5 262.5 c 128,-1,14
 40 298 40 298 40 350 c 0,15,16
 40 394 40 394 65 426.5 c 128,-1,17
 90 459 90 459 125.5 478 c 128,-1,18
 161 497 161 497 196.5 514 c 128,-1,19
 232 531 232 531 257 554.5 c 128,-1,20
 282 578 282 578 282 608 c 0,21,22
 282 627 282 627 264.5 639 c 128,-1,23
 247 651 247 651 228 651 c 0,24,25
 187 651 187 651 137 628 c 1,26,-1
 112 712 l 1,27,28
 182 732 182 732 238 732 c 0,29,30
 304 732 304 732 354.5 698 c 128,-1,31
 405 664 405 664 405 601 c 0,0,1
96 -15 m 0,32,33
 65 -15 65 -15 42 8 c 128,-1,34
 19 31 19 31 19 62 c 0,35,36
 19 94 19 94 41.5 117 c 128,-1,37
 64 140 64 140 96 140 c 256,38,39
 128 140 128 140 151 117 c 128,-1,40
 174 94 174 94 174 62 c 128,-1,41
 174 30 174 30 151 7.5 c 128,-1,42
 128 -15 128 -15 96 -15 c 0,32,33
EndSplineSet
EndChar
StartChar: at
Encoding: 64 64 32
Width: 832
GlyphClass: 2
Flags: W
LayerCount: 2
Back
Fore
SplineSet
451 -69 m 1,0,-1
 466 -122 l 1,1,2
 420 -135 420 -135 367 -135 c 0,3,4
 227 -135 227 -135 136 -41.5 c 128,-1,5
 45 52 45 52 45 192 c 0,6,7
 45 271 45 271 74 347 c 128,-1,8
 103 423 103 423 154 484.5 c 128,-1,9
 205 546 205 546 283.5 584 c 128,-1,10
 362 622 362 622 454 622 c 0,11,12
 595 622 595 622 691 538 c 128,-1,13
 787 454 787 454 787 311 c 0,14,15
 787 210 787 210 732.5 130.5 c 128,-1,16
 678 51 678 51 591 51 c 0,17,18
 514 51 514 51 483 107 c 1,19,20
 462 80 462 80 430 65 c 128,-1,21
 398 50 398 50 369 50 c 0,22,23
 306 50 306 50 273.5 95 c 128,-1,24
 241 140 241 140 241 206 c 0,25,26
 241 288 241 288 298 364 c 128,-1,27
 355 440 355 440 446 440 c 0,28,29
 499 440 499 440 532 403 c 1,30,-1
 549 433 l 1,31,-1
 596 433 l 1,32,33
 558 196 558 196 558 162 c 0,34,35
 558 107 558 107 595 107 c 0,36,37
 651 107 651 107 687 169.5 c 128,-1,38
 723 232 723 232 723 311 c 0,39,40
 723 429 723 429 646 498.5 c 128,-1,41
 569 568 569 568 454 568 c 0,42,43
 352 568 352 568 271 511.5 c 128,-1,44
 190 455 190 455 149.5 370 c 128,-1,45
 109 285 109 285 109 192 c 0,46,47
 109 75 109 75 182 -3 c 128,-1,48
 255 -81 255 -81 367 -81 c 0,49,50
 409 -81 409 -81 451 -69 c 1,0,-1
501 349 m 1,51,52
 471 378 471 378 440 378 c 0,53,54
 405 378 405 378 379 345 c 128,-1,55
 353 312 353 312 342.5 274.5 c 128,-1,56
 332 237 332 237 332 206 c 0,57,58
 332 112 332 112 386 112 c 0,59,60
 413 112 413 112 433 133 c 128,-1,61
 453 154 453 154 466 193 c 128,-1,62
 479 232 479 232 486.5 266.5 c 128,-1,63
 494 301 494 301 501 349 c 1,51,52
EndSplineSet
EndChar
StartChar: A
Encoding: 65 65 33
Width: 585
GlyphClass: 2
Flags: W
LayerCount: 2
Back
Fore
SplineSet
545 0 m 1,0,-1
 405 0 l 1,1,-1
 364 210 l 1,2,-1
 168 210 l 1,3,-1
 69 0 l 1,4,-1
 -55 0 l 1,5,-1
 289 732 l 1,6,-1
 397 732 l 1,7,-1
 545 0 l 1,0,-1
343 308 m 1,8,9
 338 333 338 333 309 558 c 1,10,11
 301 538 301 538 268.5 447.5 c 128,-1,12
 236 357 236 357 214 308 c 1,13,-1
 343 308 l 1,8,9
EndSplineSet
Position2: "'cpsp' Capital Spacing lookup 0 subtable" dx=7 dy=0 dh=14 dv=0
EndChar
StartChar: B
Encoding: 66 66 34
Width: 566
GlyphClass: 2
Flags: W
LayerCount: 2
Back
Fore
SplineSet
549 589 m 0,0,1
 549 517 549 517 501.5 463.5 c 128,-1,2
 454 410 454 410 383 399 c 1,3,4
 449 388 449 388 491 341.5 c 128,-1,5
 533 295 533 295 533 229 c 0,6,7
 533 119 533 119 450.5 59.5 c 128,-1,8
 368 0 368 0 254 0 c 2,9,-1
 11 0 l 1,10,-1
 101 671 l 1,11,-1
 95 732 l 1,12,-1
 343 732 l 2,13,14
 382 732 382 732 415.5 726 c 128,-1,15
 449 720 449 720 481 705 c 128,-1,16
 513 690 513 690 531 660.5 c 128,-1,17
 549 631 549 631 549 589 c 0,0,1
408 559 m 0,18,19
 408 633 408 633 321 633 c 2,20,-1
 227 633 l 1,21,-1
 202 446 l 1,22,-1
 299 446 l 2,23,24
 346 446 346 446 377 479 c 128,-1,25
 408 512 408 512 408 559 c 0,18,19
397 239 m 0,26,27
 397 292 397 292 358 319.5 c 128,-1,28
 319 347 319 347 263 347 c 2,29,-1
 189 347 l 1,30,-1
 156 99 l 1,31,-1
 258 99 l 2,32,33
 319 99 319 99 358 138.5 c 128,-1,34
 397 178 397 178 397 239 c 0,26,27
EndSplineSet
Position2: "'cpsp' Capital Spacing lookup 0 subtable" dx=7 dy=0 dh=14 dv=0
EndChar
StartChar: C
Encoding: 67 67 35
Width: 587
GlyphClass: 2
Flags: W
LayerCount: 2
Back
Fore
SplineSet
622 675 m 1,0,-1
 541 583 l 1,1,2
 519 614 519 614 478.5 631.5 c 128,-1,3
 438 649 438 649 398 649 c 0,4,5
 338 649 338 649 290.5 618 c 128,-1,6
 243 587 243 587 215.5 537.5 c 128,-1,7
 188 488 188 488 174 432 c 128,-1,8
 160 376 160 376 160 320 c 0,9,10
 160 263 160 263 174 212 c 128,-1,11
 188 161 188 161 227 121.5 c 128,-1,12
 266 82 266 82 324 82 c 0,13,14
 412 82 412 82 496 157 c 1,15,-1
 543 62 l 1,16,17
 423 -12 423 -12 304 -12 c 0,18,19
 165 -12 165 -12 91 70 c 128,-1,20
 17 152 17 152 17 293 c 0,21,22
 17 380 17 380 43.5 460.5 c 128,-1,23
 70 541 70 541 118 605 c 128,-1,24
 166 669 166 669 241 707.5 c 128,-1,25
 316 746 316 746 406 746 c 0,26,27
 464 746 464 746 526 728 c 128,-1,28
 588 710 588 710 622 675 c 1,0,-1
EndSplineSet
Position2: "'cpsp' Capital Spacing lookup 0 subtable" dx=7 dy=0 dh=14 dv=0
EndChar
StartChar: D
Encoding: 68 68 36
Width: 664
GlyphClass: 2
Flags: W
LayerCount: 2
Back
Fore
SplineSet
647 435 m 0,0,1
 647 319 647 319 601.5 221 c 128,-1,2
 556 123 556 123 466 61.5 c 128,-1,3
 376 0 376 0 258 0 c 2,4,-1
 11 0 l 1,5,-1
 101 671 l 1,6,-1
 94 732 l 1,7,-1
 357 732 l 2,8,9
 495 732 495 732 571 652.5 c 128,-1,10
 647 573 647 573 647 435 c 0,0,1
505 423 m 0,11,12
 505 515 505 515 464 574 c 128,-1,13
 423 633 423 633 335 633 c 2,14,-1
 227 633 l 1,15,-1
 156 99 l 1,16,-1
 266 99 l 2,17,18
 327 99 327 99 374.5 128.5 c 128,-1,19
 422 158 422 158 449.5 206.5 c 128,-1,20
 477 255 477 255 491 310.5 c 128,-1,21
 505 366 505 366 505 423 c 0,11,12
EndSplineSet
Position2: "'cpsp' Capital Spacing lookup 0 subtable" dx=7 dy=0 dh=14 dv=0
EndChar
StartChar: F
Encoding: 70 70 38
Width: 467
GlyphClass: 2
Flags: W
LayerCount: 2
Back
Fore
SplineSet
502 732 m 1,0,-1
 489 633 l 1,1,-1
 227 633 l 1,2,-1
 199 426 l 1,3,-1
 402 426 l 1,4,-1
 389 327 l 1,5,-1
 186 327 l 1,6,-1
 142 0 l 1,7,-1
 11 0 l 1,8,-1
 101 671 l 1,9,-1
 95 732 l 1,10,-1
 502 732 l 1,0,-1
EndSplineSet
Position2: "'cpsp' Capital Spacing lookup 0 subtable" dx=7 dy=0 dh=14 dv=0
EndChar
StartChar: G
Encoding: 71 71 39
Width: 668
GlyphClass: 2
Flags: W
LayerCount: 2
Back
Fore
SplineSet
655 665 m 1,0,-1
 575 583 l 1,1,2
 530 622 530 622 497 636 c 128,-1,3
 464 650 464 650 409 650 c 0,4,5
 344 650 344 650 294 618.5 c 128,-1,6
 244 587 244 587 215.5 536 c 128,-1,7
 187 485 187 485 172.5 427 c 128,-1,8
 158 369 158 369 158 308 c 0,9,10
 158 252 158 252 171 204.5 c 128,-1,11
 184 157 184 157 221 121 c 128,-1,12
 258 85 258 85 316 85 c 0,13,14
 384 85 384 85 430.5 130.5 c 128,-1,15
 477 176 477 176 486 240 c 2,16,-1
 494 302 l 1,17,-1
 350 302 l 1,18,-1
 361 390 l 1,19,-1
 638 390 l 1,20,21
 600 130 600 130 589 -1 c 1,22,-1
 521 -1 l 1,23,-1
 500 75 l 1,24,25
 447 30 447 30 397 9.5 c 128,-1,26
 347 -11 347 -11 281 -11 c 0,27,28
 151 -11 151 -11 84 70 c 128,-1,29
 17 151 17 151 17 284 c 0,30,31
 17 376 17 376 44 458.5 c 128,-1,32
 71 541 71 541 121 605 c 128,-1,33
 171 669 171 669 249 706.5 c 128,-1,34
 327 744 327 744 422 744 c 0,35,36
 486 744 486 744 553.5 724.5 c 128,-1,37
 621 705 621 705 655 665 c 1,0,-1
EndSplineSet
Position2: "'cpsp' Capital Spacing lookup 0 subtable" dx=7 dy=0 dh=14 dv=0
EndChar
StartChar: H
Encoding: 72 72 40
Width: 674
GlyphClass: 2
Flags: W
LayerCount: 2
Back
Fore
SplineSet
663 732 m 1,0,-1
 565 0 l 1,1,-1
 433 0 l 1,2,-1
 477 327 l 1,3,-1
 185 327 l 1,4,-1
 142 0 l 1,5,-1
 11 0 l 1,6,-1
 101 671 l 1,7,-1
 95 732 l 1,8,-1
 239 732 l 1,9,-1
 198 426 l 1,10,-1
 490 426 l 1,11,-1
 531 732 l 1,12,-1
 663 732 l 1,0,-1
EndSplineSet
Position2: "'cpsp' Capital Spacing lookup 0 subtable" dx=7 dy=0 dh=14 dv=0
EndChar
StartChar: I
Encoding: 73 73 41
Width: 250
GlyphClass: 2
Flags: W
LayerCount: 2
Back
Fore
SplineSet
239 732 m 1,0,-1
 142 0 l 1,1,-1
 11 0 l 1,2,-1
 101 671 l 1,3,-1
 95 732 l 1,4,-1
 239 732 l 1,0,-1
EndSplineSet
Position2: "'cpsp' Capital Spacing lookup 0 subtable" dx=7 dy=0 dh=14 dv=0
EndChar
StartChar: J
Encoding: 74 74 42
Width: 254
GlyphClass: 2
Flags: W
LayerCount: 2
Back
Fore
SplineSet
243 732 m 1,0,-1
 157 81 l 2,1,2
 151 37 151 37 147.5 13.5 c 128,-1,3
 144 -10 144 -10 135 -48.5 c 128,-1,4
 126 -87 126 -87 116 -108 c 128,-1,5
 106 -129 106 -129 88 -156 c 128,-1,6
 70 -183 70 -183 47 -196.5 c 128,-1,7
 24 -210 24 -210 -9 -220 c 128,-1,8
 -42 -230 -42 -230 -84 -230 c 0,9,10
 -162 -230 -162 -230 -226 -186 c 1,11,-1
 -164 -103 l 1,12,13
 -132 -139 -132 -139 -90 -139 c 0,14,15
 -61 -139 -61 -139 -39.5 -120.5 c 128,-1,16
 -18 -102 -18 -102 -6 -68 c 128,-1,17
 6 -34 6 -34 11 -10.5 c 128,-1,18
 16 13 16 13 21 47 c 2,19,-1
 105 671 l 1,20,-1
 99 732 l 1,21,-1
 243 732 l 1,0,-1
EndSplineSet
Position2: "'cpsp' Capital Spacing lookup 0 subtable" dx=7 dy=0 dh=14 dv=0
EndChar
StartChar: K
Encoding: 75 75 43
Width: 553
GlyphClass: 2
Flags: W
LayerCount: 2
Back
Fore
SplineSet
588 732 m 1,0,-1
 330 387 l 1,1,-1
 515 0 l 1,2,-1
 361 0 l 1,3,-1
 192 377 l 1,4,-1
 142 0 l 1,5,-1
 11 0 l 1,6,-1
 101 671 l 1,7,-1
 95 732 l 1,8,-1
 239 732 l 1,9,-1
 192 383 l 1,10,-1
 447 732 l 1,11,-1
 588 732 l 1,0,-1
EndSplineSet
Position2: "'cpsp' Capital Spacing lookup 0 subtable" dx=7 dy=0 dh=14 dv=0
EndChar
StartChar: L
Encoding: 76 76 44
Width: 459
GlyphClass: 2
Flags: W
LayerCount: 2
Back
Fore
SplineSet
428 99 m 1,0,-1
 415 0 l 1,1,-1
 11 0 l 1,2,-1
 101 671 l 1,3,-1
 96 732 l 1,4,-1
 240 732 l 1,5,-1
 156 99 l 1,6,-1
 428 99 l 1,0,-1
EndSplineSet
Position2: "'cpsp' Capital Spacing lookup 0 subtable" dx=7 dy=0 dh=14 dv=0
EndChar
StartChar: M
Encoding: 77 77 45
Width: 830
GlyphClass: 2
Flags: W
LayerCount: 2
Back
Fore
SplineSet
819 732 m 1,0,-1
 721 0 l 1,1,-1
 590 0 l 1,2,-1
 656 496 l 2,3,4
 658 510 658 510 663.5 535 c 128,-1,5
 669 560 669 560 670 568 c 1,6,7
 650 520 650 520 638 496 c 2,8,-1
 402 -1 l 1,9,-1
 314 -1 l 1,10,-1
 205 496 l 2,11,12
 193 551 193 551 191 568 c 1,13,14
 188 507 188 507 187 496 c 2,15,-1
 120 0 l 1,16,-1
 11 0 l 1,17,-1
 100 671 l 1,18,-1
 95 732 l 1,19,-1
 287 732 l 1,20,-1
 379 311 l 2,21,22
 386 282 386 282 390 190 c 1,23,24
 413 268 413 268 432 307 c 2,25,-1
 632 732 l 1,26,-1
 819 732 l 1,0,-1
EndSplineSet
Position2: "'cpsp' Capital Spacing lookup 0 subtable" dx=7 dy=0 dh=14 dv=0
EndChar
StartChar: N
Encoding: 78 78 46
Width: 682
GlyphClass: 2
Flags: W
LayerCount: 2
Back
Fore
SplineSet
671 732 m 1,0,-1
 572 -5 l 1,1,-1
 465 -5 l 1,2,-1
 220 497 l 2,3,4
 214 509 214 509 189 564 c 1,5,6
 189 557 189 557 188.5 543 c 128,-1,7
 188 529 188 529 187.5 517.5 c 128,-1,8
 187 506 187 506 186 497 c 2,9,-1
 119 0 l 1,10,-1
 11 0 l 1,11,-1
 100 671 l 1,12,-1
 95 732 l 1,13,-1
 254 732 l 1,14,-1
 470 293 l 2,15,16
 473 287 473 287 477.5 277 c 128,-1,17
 482 267 482 267 488 252 c 128,-1,18
 494 237 494 237 499 227 c 1,19,20
 500 237 500 237 500.5 263.5 c 128,-1,21
 501 290 501 290 503 304 c 2,22,-1
 560 732 l 1,23,-1
 671 732 l 1,0,-1
EndSplineSet
Position2: "'cpsp' Capital Spacing lookup 0 subtable" dx=7 dy=0 dh=14 dv=0
EndChar
StartChar: O
Encoding: 79 79 47
Width: 707
GlyphClass: 2
Flags: W
LayerCount: 2
Back
Fore
SplineSet
690 439 m 0,0,1
 690 352 690 352 663.5 271.5 c 128,-1,2
 637 191 637 191 589 128 c 128,-1,3
 541 65 541 65 465.5 27 c 128,-1,4
 390 -11 390 -11 300 -11 c 0,5,6
 164 -11 164 -11 90.5 73 c 128,-1,7
 17 157 17 157 17 295 c 0,8,9
 17 412 17 412 60.5 512.5 c 128,-1,10
 104 613 104 613 193 678 c 128,-1,11
 282 743 282 743 401 743 c 0,12,13
 540 743 540 743 615 661 c 128,-1,14
 690 579 690 579 690 439 c 0,0,1
549 434 m 0,15,16
 549 526 549 526 512 587 c 128,-1,17
 475 648 475 648 390 648 c 0,18,19
 340 648 340 648 299 625 c 128,-1,20
 258 602 258 602 232.5 565.5 c 128,-1,21
 207 529 207 529 189.5 482 c 128,-1,22
 172 435 172 435 164.5 389 c 128,-1,23
 157 343 157 343 157 298 c 0,24,25
 157 207 157 207 194 145.5 c 128,-1,26
 231 84 231 84 316 84 c 0,27,28
 378 84 378 84 425.5 118 c 128,-1,29
 473 152 473 152 498.5 206.5 c 128,-1,30
 524 261 524 261 536.5 319 c 128,-1,31
 549 377 549 377 549 434 c 0,15,16
EndSplineSet
Position2: "'cpsp' Capital Spacing lookup 0 subtable" dx=7 dy=0 dh=14 dv=0
EndChar
StartChar: P
Encoding: 80 80 48
Width: 539
GlyphClass: 2
Flags: W
LayerCount: 2
Back
Fore
SplineSet
541 541 m 0,0,1
 541 421 541 421 462 357.5 c 128,-1,2
 383 294 383 294 258 294 c 2,3,-1
 181 294 l 1,4,-1
 142 0 l 1,5,-1
 11 0 l 1,6,-1
 101 671 l 1,7,-1
 95 732 l 1,8,-1
 316 732 l 2,9,10
 414 732 414 732 477.5 685 c 128,-1,11
 541 638 541 638 541 541 c 0,0,1
402 538 m 0,12,13
 402 584 402 584 378 608.5 c 128,-1,14
 354 633 354 633 308 633 c 2,15,-1
 227 633 l 1,16,-1
 195 391 l 1,17,-1
 275 391 l 2,18,19
 334 391 334 391 368 434.5 c 128,-1,20
 402 478 402 478 402 538 c 0,12,13
EndSplineSet
Position2: "'cpsp' Capital Spacing lookup 0 subtable" dx=7 dy=0 dh=14 dv=0
EndChar
StartChar: Q
Encoding: 81 81 49
Width: 707
GlyphClass: 2
Flags: W
LayerCount: 2
Back
Fore
SplineSet
1070 -160 m 1,0,1
 1016 -179 1016 -179 984.5 -189 c 128,-1,2
 953 -199 953 -199 906 -207.5 c 128,-1,3
 859 -216 859 -216 814 -216 c 0,4,5
 761 -216 761 -216 694.5 -196 c 128,-1,6
 628 -176 628 -176 581.5 -154 c 128,-1,7
 535 -132 535 -132 461 -94 c 128,-1,8
 387 -56 387 -56 357 -42 c 0,9,10
 344 -36 344 -36 327.5 -30.5 c 128,-1,11
 311 -25 311 -25 300 -22 c 128,-1,12
 289 -19 289 -19 269 -14.5 c 128,-1,13
 249 -10 249 -10 240 -8 c 0,14,15
 17 46 17 46 17 290 c 0,16,17
 17 407 17 407 61 509 c 128,-1,18
 105 611 105 611 195.5 677.5 c 128,-1,19
 286 744 286 744 405 744 c 0,20,21
 542 744 542 744 616 658 c 128,-1,22
 690 572 690 572 690 433 c 0,23,24
 690 306 690 306 632.5 194.5 c 128,-1,25
 575 83 575 83 468 27 c 1,26,27
 546 -16 546 -16 596 -41.5 c 128,-1,28
 646 -67 646 -67 726.5 -94.5 c 128,-1,29
 807 -122 807 -122 866 -122 c 0,30,31
 926 -122 926 -122 1046 -87 c 1,32,-1
 1070 -160 l 1,0,1
551 432 m 0,33,34
 551 489 551 489 538 535 c 128,-1,35
 525 581 525 581 487.5 614.5 c 128,-1,36
 450 648 450 648 392 648 c 0,37,38
 332 648 332 648 284.5 613 c 128,-1,39
 237 578 237 578 211 523 c 128,-1,40
 185 468 185 468 171.5 410 c 128,-1,41
 158 352 158 352 158 297 c 0,42,43
 158 207 158 207 195.5 146 c 128,-1,44
 233 85 233 85 317 85 c 0,45,46
 378 85 378 85 425 119 c 128,-1,47
 472 153 472 153 498.5 206.5 c 128,-1,48
 525 260 525 260 538 318 c 128,-1,49
 551 376 551 376 551 432 c 0,33,34
EndSplineSet
Position2: "'cpsp' Capital Spacing lookup 0 subtable" dx=7 dy=0 dh=14 dv=0
EndChar
StartChar: R
Encoding: 82 82 50
Width: 565
GlyphClass: 2
Flags: W
LayerCount: 2
Back
Fore
SplineSet
543 552 m 0,0,1
 543 477 543 477 494 421.5 c 128,-1,2
 445 366 445 366 369 347 c 1,3,-1
 535 0 l 1,4,-1
 387 0 l 1,5,-1
 238 326 l 1,6,-1
 186 326 l 1,7,-1
 142 0 l 1,8,-1
 11 0 l 1,9,-1
 101 671 l 1,10,-1
 95 732 l 1,11,-1
 334 732 l 2,12,13
 423 732 423 732 483 686.5 c 128,-1,14
 543 641 543 641 543 552 c 0,0,1
404 549 m 0,15,16
 404 589 404 589 376.5 610.5 c 128,-1,17
 349 632 349 632 308 632 c 2,18,-1
 226 632 l 1,19,-1
 199 424 l 1,20,-1
 259 424 l 2,21,22
 325 424 325 424 364.5 454 c 128,-1,23
 404 484 404 484 404 549 c 0,15,16
EndSplineSet
Position2: "'cpsp' Capital Spacing lookup 0 subtable" dx=7 dy=0 dh=14 dv=0
EndChar
StartChar: S
Encoding: 83 83 51
Width: 495
GlyphClass: 2
Flags: W
LayerCount: 2
Back
Fore
SplineSet
509 684 m 1,0,-1
 450 592 l 1,1,2
 428 616 428 616 385 632 c 128,-1,3
 342 648 342 648 307 648 c 0,4,5
 262 648 262 648 230 621.5 c 128,-1,6
 198 595 198 595 198 550 c 0,7,8
 198 521 198 521 217.5 496.5 c 128,-1,9
 237 472 237 472 266 456.5 c 128,-1,10
 295 441 295 441 329 420 c 128,-1,11
 363 399 363 399 392 378 c 128,-1,12
 421 357 421 357 440.5 321 c 128,-1,13
 460 285 460 285 460 240 c 0,14,15
 460 127 460 127 379.5 57.5 c 128,-1,16
 299 -12 299 -12 183 -12 c 0,17,18
 53 -12 53 -12 -36 49 c 1,19,-1
 27 157 l 1,20,21
 93 84 93 84 184 84 c 0,22,23
 238 84 238 84 277.5 117.5 c 128,-1,24
 317 151 317 151 317 204 c 0,25,26
 317 240 317 240 290 268 c 128,-1,27
 263 296 263 296 224.5 317 c 128,-1,28
 186 338 186 338 147 361 c 128,-1,29
 108 384 108 384 81 423 c 128,-1,30
 54 462 54 462 54 514 c 0,31,32
 54 629 54 629 133.5 686.5 c 128,-1,33
 213 744 213 744 333 744 c 0,34,35
 374 744 374 744 427.5 726.5 c 128,-1,36
 481 709 481 709 509 684 c 1,0,-1
EndSplineSet
Position2: "'cpsp' Capital Spacing lookup 0 subtable" dx=7 dy=0 dh=14 dv=0
EndChar
StartChar: T
Encoding: 84 84 52
Width: 523
GlyphClass: 2
Flags: W
LayerCount: 2
Back
Fore
SplineSet
568 732 m 1,0,-1
 554 633 l 1,1,-1
 359 633 l 1,2,-1
 274 0 l 1,3,-1
 138 0 l 1,4,-1
 222 633 l 1,5,-1
 30 633 l 1,6,-1
 43 732 l 1,7,-1
 568 732 l 1,0,-1
EndSplineSet
Position2: "'cpsp' Capital Spacing lookup 0 subtable" dx=7 dy=0 dh=14 dv=0
EndChar
StartChar: U
Encoding: 85 85 53
Width: 660
GlyphClass: 2
Flags: W
LayerCount: 2
Back
Fore
SplineSet
648 732 m 1,0,-1
 587 278 l 2,1,2
 568 138 568 138 494.5 63.5 c 128,-1,3
 421 -11 421 -11 274 -11 c 0,4,5
 160 -11 160 -11 97.5 46 c 128,-1,6
 35 103 35 103 35 216 c 0,7,8
 35 250 35 250 39 278 c 2,9,-1
 92 672 l 1,10,-1
 85 732 l 1,11,-1
 234 732 l 1,12,-1
 169 243 l 2,13,14
 167 225 167 225 167 216 c 0,15,16
 167 155 167 155 203 119.5 c 128,-1,17
 239 84 239 84 301 84 c 0,18,19
 372 84 372 84 419 131 c 128,-1,20
 466 178 466 178 475 245 c 2,21,-1
 541 732 l 1,22,-1
 648 732 l 1,0,-1
EndSplineSet
Position2: "'cpsp' Capital Spacing lookup 0 subtable" dx=7 dy=0 dh=14 dv=0
EndChar
StartChar: V
Encoding: 86 86 54
Width: 561
GlyphClass: 2
Flags: W
LayerCount: 2
Back
Fore
SplineSet
616 732 m 1,0,-1
 278 -1 l 1,1,-1
 176 -1 l 1,2,-1
 35 732 l 1,3,-1
 174 732 l 1,4,-1
 253 314 l 2,5,6
 256 298 256 298 259 269.5 c 128,-1,7
 262 241 262 241 263 220 c 2,8,-1
 264 200 l 1,9,10
 290 292 290 292 311 337 c 2,11,-1
 492 732 l 1,12,-1
 616 732 l 1,0,-1
EndSplineSet
Position2: "'cpsp' Capital Spacing lookup 0 subtable" dx=7 dy=0 dh=14 dv=0
EndChar
StartChar: W
Encoding: 87 87 55
Width: 875
GlyphClass: 2
Flags: W
LayerCount: 2
Back
Fore
SplineSet
930 732 m 1,0,-1
 646 -2 l 1,1,-1
 512 -2 l 1,2,-1
 460 414 l 1,3,-1
 456 526 l 1,4,5
 424 415 424 415 403 361 c 2,6,-1
 260 -2 l 1,7,-1
 128 -2 l 1,8,-1
 35 732 l 1,9,-1
 172 732 l 1,10,-1
 225 309 l 1,11,-1
 234 182 l 1,12,13
 258 292 258 292 280 346 c 2,14,-1
 435 732 l 1,15,-1
 554 732 l 1,16,-1
 608 307 l 1,17,-1
 614 182 l 1,18,19
 645 292 645 292 666 346 c 2,20,-1
 818 732 l 1,21,-1
 930 732 l 1,0,-1
EndSplineSet
Position2: "'cpsp' Capital Spacing lookup 0 subtable" dx=7 dy=0 dh=14 dv=0
EndChar
StartChar: Z
Encoding: 90 90 58
Width: 546
GlyphClass: 2
Flags: W
LayerCount: 2
Back
Fore
SplineSet
561 659 m 1,0,-1
 164 99 l 1,1,-1
 494 99 l 1,2,-1
 480 0 l 1,3,-1
 -17 0 l 1,4,-1
 -17 82 l 1,5,-1
 377 633 l 1,6,-1
 81 633 l 1,7,-1
 94 732 l 1,8,-1
 561 732 l 1,9,-1
 561 659 l 1,0,-1
EndSplineSet
Position2: "'cpsp' Capital Spacing lookup 0 subtable" dx=7 dy=0 dh=14 dv=0
EndChar
StartChar: bracketleft
Encoding: 91 91 59
Width: 315
GlyphClass: 2
Flags: W
LayerCount: 2
Back
Fore
SplineSet
343 732 m 1,0,-1
 335 673 l 1,1,-1
 241 673 l 1,2,-1
 141 -73 l 1,3,-1
 235 -73 l 1,4,-1
 227 -132 l 1,5,-1
 20 -132 l 1,6,-1
 136 732 l 1,7,-1
 343 732 l 1,0,-1
EndSplineSet
EndChar
StartChar: bracketright
Encoding: 93 93 61
Width: 311
GlyphClass: 2
Flags: W
LayerCount: 2
Back
Fore
SplineSet
310 732 m 1,0,-1
 195 -132 l 1,1,-1
 -12 -132 l 1,2,-1
 -4 -73 l 1,3,-1
 90 -73 l 1,4,-1
 189 673 l 1,5,-1
 96 673 l 1,6,-1
 103 732 l 1,7,-1
 310 732 l 1,0,-1
EndSplineSet
EndChar
StartChar: underscore
Encoding: 95 95 63
Width: 495
GlyphClass: 2
Flags: W
LayerCount: 2
Back
Fore
SplineSet
509 -47 m 1,0,-1
 496 -143 l 1,1,-1
 -12 -143 l 1,2,-1
 1 -47 l 1,3,-1
 509 -47 l 1,0,-1
EndSplineSet
EndChar
StartChar: a
Encoding: 97 97 65
Width: 525
GlyphClass: 2
Flags: W
LayerCount: 2
Back
Fore
SplineSet
530 22 m 1,0,1
 483 -9 483 -9 424 -9 c 0,2,3
 394 -9 394 -9 371 10.5 c 128,-1,4
 348 30 348 30 342 59 c 1,5,-1
 338 59 l 1,6,7
 285 -12 285 -12 192 -12 c 0,8,9
 107 -12 107 -12 64 48.5 c 128,-1,10
 21 109 21 109 21 197 c 0,11,12
 21 275 21 275 51 345 c 128,-1,13
 81 415 81 415 144 462 c 128,-1,14
 207 509 207 509 290 509 c 0,15,16
 363 509 363 509 410 459 c 1,17,-1
 433 500 l 1,18,-1
 496 500 l 1,19,-1
 442 130 l 2,20,21
 440 116 440 116 440 109 c 0,22,23
 440 73 440 73 465 73 c 0,24,25
 482 73 482 73 513 85 c 1,26,-1
 530 22 l 1,0,1
368 387 m 1,27,28
 328 427 328 427 282 427 c 0,29,30
 244 427 244 427 215 401.5 c 128,-1,31
 186 376 186 376 171 338 c 128,-1,32
 156 300 156 300 149 263.5 c 128,-1,33
 142 227 142 227 142 197 c 0,34,35
 142 71 142 71 215 71 c 0,36,37
 251 71 251 71 278 99 c 128,-1,38
 305 127 305 127 322.5 178.5 c 128,-1,39
 340 230 340 230 349.5 277 c 128,-1,40
 359 324 359 324 368 387 c 1,27,28
EndSplineSet
Substitution2: "Single Substitution lookup 7 subtable" ordfeminine
Substitution2: "'aalt' Access All Alternates lookup 0 subtable" ordfeminine
EndChar
StartChar: b
Encoding: 98 98 66
Width: 518
GlyphClass: 2
Flags: W
LayerCount: 2
Back
Fore
SplineSet
497 301 m 0,0,1
 497 223 497 223 460 153 c 128,-1,2
 423 83 423 83 348.5 36 c 128,-1,3
 274 -11 274 -11 179 -11 c 0,4,5
 82 -11 82 -11 27 40 c 1,6,-1
 117 713 l 1,7,-1
 112 768 l 1,8,-1
 239 768 l 1,9,-1
 198 460 l 1,10,11
 251 510 251 510 326 510 c 0,12,13
 412 510 412 510 454.5 453.5 c 128,-1,14
 497 397 497 397 497 301 c 0,0,1
376 325 m 0,15,16
 376 426 376 426 305 426 c 0,17,18
 276 426 276 426 242 404 c 128,-1,19
 208 382 208 382 184 354 c 1,20,-1
 151 108 l 2,21,22
 150 104 150 104 150 98 c 0,23,24
 150 71 150 71 192 71 c 0,25,26
 274 71 274 71 325 152 c 128,-1,27
 376 233 376 233 376 325 c 0,15,16
EndSplineSet
EndChar
StartChar: c
Encoding: 99 99 67
Width: 421
GlyphClass: 2
Flags: W
LayerCount: 2
Back
Fore
SplineSet
441 462 m 1,0,-1
 372 383 l 1,1,2
 330 427 330 427 282 427 c 0,3,4
 246 427 246 427 218.5 404 c 128,-1,5
 191 381 191 381 176.5 346 c 128,-1,6
 162 311 162 311 154.5 276 c 128,-1,7
 147 241 147 241 147 209 c 0,8,9
 147 152 147 152 170 114 c 128,-1,10
 193 76 193 76 244 76 c 256,11,12
 295 76 295 76 354 121 c 1,13,-1
 391 35 l 1,14,15
 303 -12 303 -12 221 -12 c 0,16,17
 131 -12 131 -12 76 47.5 c 128,-1,18
 21 107 21 107 21 197 c 0,19,20
 21 327 21 327 97 418.5 c 128,-1,21
 173 510 173 510 296 510 c 0,22,23
 332 510 332 510 373.5 497 c 128,-1,24
 415 484 415 484 441 462 c 1,0,-1
EndSplineSet
EndChar
StartChar: d
Encoding: 100 100 68
Width: 529
GlyphClass: 2
Flags: W
LayerCount: 2
Back
Fore
SplineSet
534 769 m 1,0,-1
 442 131 l 2,1,2
 440 117 440 117 440 110 c 0,3,4
 440 74 440 74 465 74 c 0,5,6
 482 74 482 74 513 86 c 1,7,-1
 530 22 l 1,8,9
 483 -9 483 -9 424 -9 c 0,10,11
 394 -9 394 -9 370.5 10 c 128,-1,12
 347 29 347 29 339 59 c 1,13,14
 286 -12 286 -12 192 -12 c 0,15,16
 107 -12 107 -12 64 48.5 c 128,-1,17
 21 109 21 109 21 197 c 0,18,19
 21 320 21 320 91 414.5 c 128,-1,20
 161 509 161 509 280 509 c 0,21,22
 348 509 348 509 381 477 c 1,23,-1
 412 714 l 1,24,-1
 407 769 l 1,25,-1
 534 769 l 1,0,-1
369 387 m 1,26,27
 329 427 329 427 283 427 c 0,28,29
 245 427 245 427 216 402 c 128,-1,30
 187 377 187 377 172 339.5 c 128,-1,31
 157 302 157 302 150 266 c 128,-1,32
 143 230 143 230 143 200 c 0,33,34
 143 71 143 71 216 71 c 0,35,36
 246 71 246 71 270 91.5 c 128,-1,37
 294 112 294 112 309 141 c 128,-1,38
 324 170 324 170 336.5 216.5 c 128,-1,39
 349 263 349 263 355.5 299.5 c 128,-1,40
 362 336 362 336 369 387 c 1,26,27
EndSplineSet
EndChar
StartChar: e
Encoding: 101 101 69
Width: 462
GlyphClass: 2
Flags: W
LayerCount: 2
Back
Fore
SplineSet
452 394 m 0,0,1
 452 362 452 362 437.5 330 c 128,-1,2
 423 298 423 298 391 266.5 c 128,-1,3
 359 235 359 235 296 215 c 128,-1,4
 233 195 233 195 148 194 c 1,5,6
 152 137 152 137 180.5 106.5 c 128,-1,7
 209 76 209 76 250 76 c 0,8,9
 314 76 314 76 394 137 c 1,10,-1
 436 54 l 1,11,12
 433 51 433 51 427 46.5 c 128,-1,13
 421 42 421 42 401.5 31 c 128,-1,14
 382 20 382 20 360.5 11 c 128,-1,15
 339 2 339 2 305.5 -5 c 128,-1,16
 272 -12 272 -12 238 -12 c 0,17,18
 144 -12 144 -12 82.5 45 c 128,-1,19
 21 102 21 102 21 201 c 0,20,21
 21 253 21 253 39.5 306.5 c 128,-1,22
 58 360 58 360 92 406 c 128,-1,23
 126 452 126 452 180 481 c 128,-1,24
 234 510 234 510 299 510 c 0,25,26
 367 510 367 510 409.5 480 c 128,-1,27
 452 450 452 450 452 394 c 0,0,1
329 392 m 0,28,29
 329 426 329 426 290 426 c 0,30,31
 257 426 257 426 214 389 c 128,-1,32
 171 352 171 352 155 279 c 1,33,34
 233 281 233 281 281 313.5 c 128,-1,35
 329 346 329 346 329 392 c 0,28,29
EndSplineSet
EndChar
StartChar: f
Encoding: 102 102 70
Width: 301
GlyphClass: 2
Flags: W
LayerCount: 2
Back
Fore
SplineSet
501 733 m 1,0,-1
 452 654 l 1,1,2
 408 694 408 694 354 694 c 0,3,4
 322 694 322 694 296.5 674 c 128,-1,5
 271 654 271 654 256.5 620.5 c 128,-1,6
 242 587 242 587 234.5 558 c 128,-1,7
 227 529 227 529 222 497 c 1,8,-1
 340 497 l 1,9,-1
 329 414 l 1,10,-1
 211 414 l 1,11,-1
 149 -47 l 2,12,13
 124 -230 124 -230 -33 -230 c 0,14,15
 -70 -230 -70 -230 -110.5 -219 c 128,-1,16
 -151 -208 -151 -208 -170 -186 c 1,17,-1
 -122 -120 l 1,18,19
 -110 -132 -110 -132 -87.5 -141.5 c 128,-1,20
 -65 -151 -65 -151 -49 -151 c 0,21,22
 20 -151 20 -151 36 -35 c 2,23,-1
 97 414 l 1,24,-1
 18 414 l 1,25,-1
 28 497 l 1,26,-1
 107 497 l 1,27,28
 115 559 115 559 130.5 606 c 128,-1,29
 146 653 146 653 173.5 693 c 128,-1,30
 201 733 201 733 247.5 754.5 c 128,-1,31
 294 776 294 776 357 776 c 0,32,33
 438 776 438 776 501 733 c 1,0,-1
EndSplineSet
EndChar
StartChar: g
Encoding: 103 103 71
Width: 508
GlyphClass: 2
Flags: W
LayerCount: 2
Back
Fore
SplineSet
500 521 m 1,0,-1
 439 66 l 2,1,2
 421 -68 421 -68 353 -149 c 128,-1,3
 285 -230 285 -230 171 -230 c 0,4,5
 62 -230 62 -230 -5 -174 c 1,6,-1
 51 -93 l 1,7,8
 59 -106 59 -106 95 -128 c 128,-1,9
 131 -150 131 -150 165 -150 c 0,10,11
 201 -150 201 -150 231.5 -127 c 128,-1,12
 262 -104 262 -104 280.5 -71 c 128,-1,13
 299 -38 299 -38 309.5 -9.5 c 128,-1,14
 320 19 320 19 323 38 c 1,15,-1
 319 38 l 1,16,17
 268 -12 268 -12 193 -12 c 0,18,19
 108 -12 108 -12 65 48.5 c 128,-1,20
 22 109 22 109 22 197 c 0,21,22
 22 276 22 276 52 345.5 c 128,-1,23
 82 415 82 415 147 462.5 c 128,-1,24
 212 510 212 510 300 510 c 0,25,26
 357 510 357 510 402 490 c 1,27,-1
 500 521 l 1,0,-1
372 404 m 1,28,29
 326 426 326 426 293 426 c 0,30,31
 254 426 254 426 223 401 c 128,-1,32
 192 376 192 376 176 339 c 128,-1,33
 160 302 160 302 152 266 c 128,-1,34
 144 230 144 230 144 200 c 0,35,36
 144 71 144 71 217 71 c 0,37,38
 240 71 240 71 259 83 c 128,-1,39
 278 95 278 95 292 112 c 128,-1,40
 306 129 306 129 318 159 c 128,-1,41
 330 189 330 189 337.5 213.5 c 128,-1,42
 345 238 345 238 352.5 277.5 c 128,-1,43
 360 317 360 317 363.5 340.5 c 128,-1,44
 367 364 367 364 372 404 c 1,28,29
EndSplineSet
EndChar
StartChar: h
Encoding: 104 104 72
Width: 491
GlyphClass: 2
Flags: W
LayerCount: 2
Back
Fore
SplineSet
466 387 m 0,0,1
 466 360 466 360 463 336 c 2,2,-1
 425 54 l 1,3,-1
 428 0 l 1,4,-1
 302 0 l 1,5,-1
 346 324 l 2,6,7
 349 342 349 342 349 360 c 0,8,9
 349 414 349 414 299 414 c 0,10,11
 277 414 277 414 242 396 c 128,-1,12
 207 378 207 378 189 361 c 1,13,-1
 141 0 l 1,14,-1
 27 0 l 1,15,-1
 122 715 l 1,16,-1
 118 769 l 1,17,-1
 244 769 l 1,18,-1
 200 450 l 1,19,20
 279 511 279 511 345 511 c 0,21,22
 466 511 466 511 466 387 c 0,0,1
EndSplineSet
EndChar
StartChar: i
Encoding: 105 105 73
Width: 228
GlyphClass: 2
Flags: W
LayerCount: 2
Back
Fore
SplineSet
248 692 m 0,0,1
 248 658 248 658 223.5 631 c 128,-1,2
 199 604 199 604 165 604 c 0,3,4
 138 604 138 604 120 623.5 c 128,-1,5
 102 643 102 643 102 670 c 0,6,7
 102 704 102 704 127 730.5 c 128,-1,8
 152 757 152 757 186 757 c 0,9,10
 213 757 213 757 230.5 738 c 128,-1,11
 248 719 248 719 248 692 c 0,0,1
207 497 m 1,12,-1
 148 55 l 1,13,-1
 151 0 l 1,14,-1
 27 0 l 1,15,-1
 86 443 l 1,16,-1
 83 497 l 1,17,-1
 207 497 l 1,12,-1
EndSplineSet
EndChar
StartChar: j
Encoding: 106 106 74
Width: 228
GlyphClass: 2
Flags: W
LayerCount: 2
Back
Fore
SplineSet
248 692 m 0,0,1
 248 658 248 658 223 631 c 128,-1,2
 198 604 198 604 165 604 c 0,3,4
 138 604 138 604 119.5 623.5 c 128,-1,5
 101 643 101 643 101 670 c 0,6,7
 101 704 101 704 126.5 730.5 c 128,-1,8
 152 757 152 757 185 757 c 0,9,10
 212 757 212 757 230 738 c 128,-1,11
 248 719 248 719 248 692 c 0,0,1
209 497 m 1,12,-1
 146 34 l 2,13,14
 141 -1 141 -1 137.5 -22 c 128,-1,15
 134 -43 134 -43 126.5 -74.5 c 128,-1,16
 119 -106 119 -106 110 -125 c 128,-1,17
 101 -144 101 -144 85.5 -166.5 c 128,-1,18
 70 -189 70 -189 51 -201 c 128,-1,19
 32 -213 32 -213 4.5 -221.5 c 128,-1,20
 -23 -230 -23 -230 -57 -230 c 0,21,22
 -136 -230 -136 -230 -205 -188 c 1,23,-1
 -150 -108 l 1,24,25
 -137 -127 -137 -127 -112 -138.5 c 128,-1,26
 -87 -150 -87 -150 -63 -150 c 0,27,28
 -38 -150 -38 -150 -20.5 -133 c 128,-1,29
 -3 -116 -3 -116 7 -84.5 c 128,-1,30
 17 -53 17 -53 21 -34 c 128,-1,31
 25 -15 25 -15 29 15 c 2,32,-1
 87 444 l 1,33,-1
 83 497 l 1,34,-1
 209 497 l 1,12,-1
EndSplineSet
EndChar
StartChar: l
Encoding: 108 108 76
Width: 228
GlyphClass: 2
Flags: W
LayerCount: 2
Back
Fore
SplineSet
247 769 m 1,0,-1
 151 54 l 1,1,-1
 154 0 l 1,2,-1
 27 0 l 1,3,-1
 122 715 l 1,4,-1
 119 769 l 1,5,-1
 247 769 l 1,0,-1
EndSplineSet
EndChar
StartChar: m
Encoding: 109 109 77
Width: 758
GlyphClass: 2
Flags: W
LayerCount: 2
Back
Fore
SplineSet
733 389 m 0,0,1
 733 371 733 371 729 339 c 2,2,-1
 691 53 l 1,3,-1
 694 0 l 1,4,-1
 570 0 l 1,5,-1
 614 332 l 2,6,7
 616 350 616 350 616 360 c 0,8,9
 616 388 616 388 603.5 401 c 128,-1,10
 591 414 591 414 563 414 c 0,11,12
 517 414 517 414 460 362 c 1,13,-1
 412 0 l 1,14,-1
 297 0 l 1,15,-1
 342 335 l 2,16,17
 344 351 344 351 344 359 c 0,18,19
 344 414 344 414 293 414 c 0,20,21
 269 414 269 414 240 398 c 128,-1,22
 211 382 211 382 190 361 c 1,23,-1
 141 0 l 1,24,-1
 27 0 l 1,25,-1
 75 356 l 2,26,27
 78 385 78 385 78 414 c 0,28,29
 78 471 78 471 64 493 c 1,30,-1
 185 508 l 1,31,32
 193 480 193 480 193 444 c 1,33,34
 273 510 273 510 347 510 c 0,35,36
 435 510 435 510 455 437 c 1,37,38
 533 510 533 510 619 510 c 0,39,40
 733 510 733 510 733 389 c 0,0,1
EndSplineSet
EndChar
StartChar: n
Encoding: 110 110 78
Width: 492
GlyphClass: 2
Flags: W
LayerCount: 2
Back
Fore
SplineSet
467 387 m 0,0,1
 467 360 467 360 464 336 c 2,2,-1
 426 54 l 1,3,-1
 429 0 l 1,4,-1
 304 0 l 1,5,-1
 347 324 l 2,6,7
 350 342 350 342 350 360 c 0,8,9
 350 414 350 414 300 414 c 0,10,11
 278 414 278 414 242.5 396 c 128,-1,12
 207 378 207 378 190 361 c 1,13,-1
 141 0 l 1,14,-1
 27 0 l 1,15,-1
 75 356 l 2,16,17
 78 385 78 385 78 414 c 0,18,19
 78 471 78 471 64 493 c 1,20,-1
 185 508 l 1,21,22
 193 480 193 480 193 444 c 1,23,24
 274 511 274 511 346 511 c 0,25,26
 467 511 467 511 467 387 c 0,0,1
EndSplineSet
EndChar
StartChar: o
Encoding: 111 111 79
Width: 508
GlyphClass: 2
Flags: W
LayerCount: 2
Back
Fore
SplineSet
487 295 m 0,0,1
 487 217 487 217 455 147.5 c 128,-1,2
 423 78 423 78 360.5 33 c 128,-1,3
 298 -12 298 -12 219 -12 c 0,4,5
 126 -12 126 -12 73.5 48 c 128,-1,6
 21 108 21 108 21 203 c 0,7,8
 21 324 21 324 96 417 c 128,-1,9
 171 510 171 510 289 510 c 0,10,11
 382 510 382 510 434.5 450 c 128,-1,12
 487 390 487 390 487 295 c 0,0,1
362 305 m 0,13,14
 362 428 362 428 278 428 c 0,15,16
 242 428 242 428 214.5 403.5 c 128,-1,17
 187 379 187 379 173 341 c 128,-1,18
 159 303 159 303 152.5 266.5 c 128,-1,19
 146 230 146 230 146 197 c 0,20,21
 146 68 146 68 230 68 c 0,22,23
 267 68 267 68 295 93 c 128,-1,24
 323 118 323 118 336.5 157 c 128,-1,25
 350 196 350 196 356 233 c 128,-1,26
 362 270 362 270 362 305 c 0,13,14
EndSplineSet
Substitution2: "Single Substitution lookup 7 subtable" ordmasculine
Substitution2: "'aalt' Access All Alternates lookup 0 subtable" ordmasculine
EndChar
StartChar: p
Encoding: 112 112 80
Width: 526
GlyphClass: 2
Flags: W
LayerCount: 2
Back
Fore
SplineSet
505 301 m 0,0,1
 505 178 505 178 435 83.5 c 128,-1,2
 365 -11 365 -11 246 -11 c 0,3,4
 178 -11 178 -11 145 21 c 1,5,-1
 120 -170 l 1,6,-1
 125 -225 l 1,7,-1
 -2 -225 l 1,8,-1
 76 356 l 2,9,10
 80 381 80 381 80 413 c 0,11,12
 80 466 80 466 67 492 c 1,13,-1
 184 507 l 1,14,15
 192 479 192 479 194 447 c 1,16,17
 217 475 217 475 256.5 492.5 c 128,-1,18
 296 510 296 510 334 510 c 0,19,20
 419 510 419 510 462 449.5 c 128,-1,21
 505 389 505 389 505 301 c 0,0,1
383 297 m 0,22,23
 383 426 383 426 310 426 c 0,24,25
 287 426 287 426 268 415 c 128,-1,26
 249 404 249 404 235.5 388.5 c 128,-1,27
 222 373 222 373 210 345 c 128,-1,28
 198 317 198 317 191 294.5 c 128,-1,29
 184 272 184 272 176.5 234 c 128,-1,30
 169 196 169 196 165.5 173 c 128,-1,31
 162 150 162 150 157 111 c 1,32,33
 197 71 197 71 243 71 c 0,34,35
 273 71 273 71 298 88 c 128,-1,36
 323 105 323 105 338.5 130 c 128,-1,37
 354 155 354 155 364.5 187 c 128,-1,38
 375 219 375 219 379 246.5 c 128,-1,39
 383 274 383 274 383 297 c 0,22,23
EndSplineSet
EndChar
StartChar: q
Encoding: 113 113 81
Width: 511
GlyphClass: 2
Flags: W
LayerCount: 2
Back
Fore
SplineSet
501 537 m 1,0,-1
 408 -169 l 1,1,-1
 413 -224 l 1,2,-1
 286 -224 l 1,3,-1
 321 39 l 1,4,5
 269 -12 269 -12 192 -12 c 0,6,7
 107 -12 107 -12 64 48.5 c 128,-1,8
 21 109 21 109 21 197 c 0,9,10
 21 275 21 275 51 345 c 128,-1,11
 81 415 81 415 144 462 c 128,-1,12
 207 509 207 509 290 509 c 0,13,14
 362 509 362 509 411 460 c 1,15,-1
 454 537 l 1,16,-1
 501 537 l 1,0,-1
368 387 m 1,17,18
 328 427 328 427 282 427 c 0,19,20
 244 427 244 427 215 401.5 c 128,-1,21
 186 376 186 376 171 338 c 128,-1,22
 156 300 156 300 149 263.5 c 128,-1,23
 142 227 142 227 142 197 c 0,24,25
 142 71 142 71 215 71 c 0,26,27
 251 71 251 71 278 99 c 128,-1,28
 305 127 305 127 322.5 178.5 c 128,-1,29
 340 230 340 230 349.5 277 c 128,-1,30
 359 324 359 324 368 387 c 1,17,18
EndSplineSet
EndChar
StartChar: r
Encoding: 114 114 82
Width: 327
GlyphClass: 2
Flags: W
LayerCount: 2
Back
Fore
SplineSet
365 507 m 1,0,-1
 330 388 l 1,1,-1
 326 388 l 2,2,3
 251 388 251 388 181 296 c 1,4,-1
 141 0 l 1,5,-1
 27 0 l 1,6,-1
 75 363 l 2,7,8
 79 389 79 389 79 413 c 0,9,10
 79 471 79 471 63 497 c 1,11,-1
 185 507 l 1,12,13
 195 473 195 473 195 431 c 0,14,15
 195 411 195 411 194 402 c 1,16,17
 225 445 225 445 271.5 476 c 128,-1,18
 318 507 318 507 365 507 c 1,0,-1
EndSplineSet
EndChar
StartChar: s
Encoding: 115 115 83
Width: 371
GlyphClass: 2
Flags: W
LayerCount: 2
Back
Fore
SplineSet
379 479 m 1,0,-1
 327 395 l 1,1,2
 295 426 295 426 238 426 c 0,3,4
 208 426 208 426 187 411.5 c 128,-1,5
 166 397 166 397 166 369 c 0,6,7
 166 348 166 348 184.5 332.5 c 128,-1,8
 203 317 203 317 229.5 305.5 c 128,-1,9
 256 294 256 294 282.5 279.5 c 128,-1,10
 309 265 309 265 327.5 238 c 128,-1,11
 346 211 346 211 346 172 c 0,12,13
 346 84 346 84 285.5 36 c 128,-1,14
 225 -12 225 -12 137 -12 c 0,15,16
 53 -12 53 -12 -15 32 c 1,17,-1
 37 114 l 1,18,19
 102 71 102 71 139 71 c 0,20,21
 172 71 172 71 195.5 92 c 128,-1,22
 219 113 219 113 219 147 c 0,23,24
 219 174 219 174 190.5 194 c 128,-1,25
 162 214 162 214 128.5 226 c 128,-1,26
 95 238 95 238 66.5 267.5 c 128,-1,27
 38 297 38 297 38 342 c 0,28,29
 38 425 38 425 97.5 467.5 c 128,-1,30
 157 510 157 510 243 510 c 0,31,32
 321 510 321 510 379 479 c 1,0,-1
EndSplineSet
EndChar
StartChar: t
Encoding: 116 116 84
Width: 315
GlyphClass: 2
Flags: W
LayerCount: 2
Back
Fore
SplineSet
335 497 m 1,0,-1
 323 414 l 1,1,-1
 208 414 l 1,2,-1
 172 139 l 2,3,4
 170 121 170 121 170 111 c 0,5,6
 170 72 170 72 203 72 c 0,7,8
 238 72 238 72 278 82 c 1,9,-1
 289 13 l 1,10,11
 218 -10 218 -10 155 -10 c 0,12,13
 100 -10 100 -10 75.5 13 c 128,-1,14
 51 36 51 36 51 82 c 0,15,16
 51 98 51 98 54 116 c 2,17,-1
 94 414 l 1,18,-1
 25 414 l 1,19,-1
 36 497 l 1,20,-1
 105 497 l 1,21,-1
 124 633 l 1,22,-1
 251 633 l 1,23,-1
 220 497 l 1,24,-1
 335 497 l 1,0,-1
EndSplineSet
EndChar
StartChar: v
Encoding: 118 118 86
Width: 419
GlyphClass: 2
Flags: W
LayerCount: 2
Back
Fore
SplineSet
459 497 m 1,0,-1
 227 -4 l 1,1,-1
 121 -4 l 1,2,-1
 15 497 l 1,3,-1
 137 497 l 1,4,-1
 190 235 l 2,5,6
 196 206 196 206 200 151 c 1,7,8
 220 222 220 222 226 235 c 2,9,-1
 342 497 l 1,10,-1
 459 497 l 1,0,-1
EndSplineSet
EndChar
StartChar: w
Encoding: 119 119 87
Width: 638
GlyphClass: 2
Flags: W
LayerCount: 2
Back
Fore
SplineSet
678 497 m 1,0,-1
 459 -4 l 1,1,-1
 360 -4 l 1,2,-1
 322 258 l 1,3,-1
 320 335 l 1,4,5
 310 281 310 281 303 266 c 2,6,-1
 188 -4 l 1,7,-1
 89 -4 l 1,8,-1
 15 497 l 1,9,-1
 137 497 l 1,10,-1
 170 266 l 2,11,12
 172 250 172 250 172 218 c 0,13,14
 172 189 172 189 171 173 c 1,15,16
 184 231 184 231 195 258 c 2,17,-1
 296 497 l 1,18,-1
 408 497 l 1,19,-1
 441 266 l 2,20,21
 443 252 443 252 443 214 c 0,22,23
 443 185 443 185 442 173 c 1,24,25
 458 239 458 239 466 258 c 2,26,-1
 563 497 l 1,27,-1
 678 497 l 1,0,-1
EndSplineSet
EndChar
StartChar: x
Encoding: 120 120 88
Width: 465
GlyphClass: 2
Flags: W
LayerCount: 2
Back
Fore
SplineSet
484 497 m 1,0,-1
 305 267 l 1,1,-1
 439 0 l 1,2,-1
 306 0 l 1,3,-1
 230 165 l 1,4,-1
 110 0 l 1,5,-1
 -20 0 l 1,6,-1
 187 264 l 1,7,-1
 67 497 l 1,8,-1
 199 497 l 1,9,-1
 260 365 l 1,10,-1
 355 497 l 1,11,-1
 484 497 l 1,0,-1
EndSplineSet
EndChar
StartChar: y
Encoding: 121 121 89
Width: 419
GlyphClass: 2
Flags: W
LayerCount: 2
Back
Fore
SplineSet
459 497 m 1,0,-1
 226 -3 l 2,1,2
 208 -41 208 -41 195 -66 c 128,-1,3
 182 -91 182 -91 156.5 -125.5 c 128,-1,4
 131 -160 131 -160 105 -180 c 128,-1,5
 79 -200 79 -200 39 -215 c 128,-1,6
 -1 -230 -1 -230 -47 -230 c 0,7,8
 -87 -230 -87 -230 -122 -220 c 128,-1,9
 -157 -210 -157 -210 -172 -200 c 2,10,-1
 -187 -190 l 1,11,-1
 -136 -113 l 1,12,13
 -97 -150 -97 -150 -48 -150 c 0,14,15
 -17 -150 -17 -150 10 -136 c 128,-1,16
 37 -122 37 -122 58.5 -95 c 128,-1,17
 80 -68 80 -68 92.5 -48.5 c 128,-1,18
 105 -29 105 -29 120 1 c 1,19,-1
 15 497 l 1,20,-1
 137 497 l 1,21,22
 185 265 185 265 192 221 c 0,23,24
 193 214 193 214 196 146 c 1,25,26
 214 206 214 206 220 221 c 0,27,28
 243 276 243 276 290.5 376 c 128,-1,29
 338 476 338 476 347 497 c 1,30,-1
 459 497 l 1,0,-1
EndSplineSet
EndChar
StartChar: z
Encoding: 122 122 90
Width: 418
GlyphClass: 2
Flags: W
LayerCount: 2
Back
Fore
SplineSet
418 435 m 1,0,-1
 145 84 l 1,1,-1
 384 84 l 1,2,-1
 373 0 l 1,3,-1
 -10 0 l 1,4,-1
 -10 61 l 1,5,-1
 260 414 l 1,6,-1
 59 414 l 1,7,-1
 70 497 l 1,8,-1
 418 497 l 1,9,-1
 418 435 l 1,0,-1
EndSplineSet
EndChar
StartChar: braceleft
Encoding: 123 123 91
Width: 321
GlyphClass: 2
Flags: W
LayerCount: 2
Back
Fore
SplineSet
357 739 m 1,0,-1
 348 677 l 1,1,2
 299 677 299 677 279.5 660 c 128,-1,3
 260 643 260 643 253 593 c 2,4,-1
 231 427 l 2,5,6
 218 325 218 325 162 296 c 1,7,8
 199 273 199 273 199 209 c 0,9,10
 199 187 199 187 196 166 c 2,11,-1
 174 0 l 2,12,13
 171 -22 171 -22 171 -38 c 0,14,15
 171 -66 171 -66 185 -75 c 128,-1,16
 199 -84 199 -84 237 -84 c 2,17,-1
 247 -84 l 1,18,-1
 238 -147 l 1,19,-1
 195 -147 l 2,20,21
 63 -147 63 -147 63 -19 c 0,22,23
 63 2 63 2 66 24 c 2,24,-1
 88 183 l 2,25,26
 89 188 89 188 89 199 c 0,27,28
 89 226 89 226 76.5 245.5 c 128,-1,29
 64 265 64 265 38 266 c 1,30,-1
 46 327 l 1,31,32
 106 327 106 327 119 416 c 2,33,-1
 139 569 l 2,34,35
 149 647 149 647 189.5 693 c 128,-1,36
 230 739 230 739 301 739 c 2,37,-1
 357 739 l 1,0,-1
EndSplineSet
EndChar
StartChar: braceright
Encoding: 125 125 93
Width: 321
GlyphClass: 2
Flags: W
LayerCount: 2
Back
Fore
SplineSet
308 328 m 1,0,-1
 300 267 l 1,1,2
 270 267 270 267 251 241.5 c 128,-1,3
 232 216 232 216 228 183 c 2,4,-1
 207 24 l 2,5,6
 183 -147 183 -147 33 -147 c 2,7,-1
 -10 -147 l 1,8,-1
 -2 -85 l 1,9,10
 52 -85 52 -85 69 -70 c 128,-1,11
 86 -55 86 -55 93 0 c 2,12,-1
 115 166 l 2,13,14
 128 267 128 267 184 296 c 1,15,16
 147 319 147 319 147 383 c 0,17,18
 147 406 147 406 150 427 c 2,19,-1
 172 593 l 2,20,21
 174 604 174 604 174 623 c 0,22,23
 174 653 174 653 158.5 664.5 c 128,-1,24
 143 676 143 676 105 676 c 2,25,-1
 99 676 l 1,26,-1
 108 739 l 1,27,-1
 163 739 l 2,28,29
 283 739 283 739 283 610 c 0,30,31
 283 590 283 590 280 569 c 2,32,-1
 259 416 l 2,33,34
 258 409 258 409 258 393 c 0,35,36
 258 329 258 329 308 328 c 1,0,-1
EndSplineSet
EndChar
StartChar: asciitilde
Encoding: 126 126 94
Width: 559
GlyphClass: 2
Flags: W
LayerCount: 2
Back
Fore
SplineSet
524 299 m 1,0,1
 499 258 499 258 459 226 c 128,-1,2
 419 194 419 194 380 194 c 0,3,4
 340 194 340 194 274.5 229 c 128,-1,5
 209 264 209 264 174 264 c 0,6,7
 150 264 150 264 130 241 c 128,-1,8
 110 218 110 218 98 189 c 1,9,-1
 35 244 l 1,10,11
 55 289 55 289 93.5 321.5 c 128,-1,12
 132 354 132 354 174 354 c 0,13,14
 220 354 220 354 289 319 c 128,-1,15
 358 284 358 284 380 284 c 0,16,17
 425 284 425 284 464 357 c 1,18,-1
 524 299 l 1,0,1
EndSplineSet
EndChar
StartChar: exclamdown
Encoding: 161 161 95
Width: 245
GlyphClass: 2
Flags: W
LayerCount: 2
Back
Fore
SplineSet
184 371 m 1,0,-1
 148 -96 l 2,1,2
 146 -114 146 -114 139 -122 c 128,-1,3
 132 -130 132 -130 114 -130 c 0,4,5
 106 -130 106 -130 35 -119 c 0,6,7
 0 -113 0 -113 0 -87 c 0,8,9
 0 -82 0 -82 2 -74 c 2,10,-1
 96 383 l 1,11,-1
 184 371 l 1,0,-1
160 454 m 0,12,13
 129 454 129 454 106 477 c 128,-1,14
 83 500 83 500 83 531 c 0,15,16
 83 563 83 563 105.5 586 c 128,-1,17
 128 609 128 609 160 609 c 256,18,19
 192 609 192 609 215 586 c 128,-1,20
 238 563 238 563 238 531 c 128,-1,21
 238 499 238 499 215 476.5 c 128,-1,22
 192 454 192 454 160 454 c 0,12,13
EndSplineSet
EndChar
StartChar: cent
Encoding: 162 162 96
Width: 421
GlyphClass: 2
Flags: W
LayerCount: 2
Back
Fore
SplineSet
440 462 m 1,0,-1
 373 386 l 1,1,2
 329 425 329 425 282 425 c 0,3,4
 238 425 238 425 205.5 386 c 128,-1,5
 173 347 173 347 160 299.5 c 128,-1,6
 147 252 147 252 147 209 c 0,7,8
 147 151 147 151 170.5 111.5 c 128,-1,9
 194 72 194 72 248 72 c 0,10,11
 291 72 291 72 354 121 c 1,12,-1
 390 35 l 1,13,14
 303 -12 303 -12 222 -12 c 2,15,-1
 208 -12 l 1,16,-1
 182 -128 l 1,17,-1
 113 -128 l 1,18,-1
 160 -5 l 1,19,20
 89 12 89 12 54.5 65.5 c 128,-1,21
 20 119 20 119 20 196 c 0,22,23
 20 319 20 319 88.5 408 c 128,-1,24
 157 497 157 497 276 509 c 1,25,-1
 300 622 l 1,26,-1
 370 622 l 1,27,-1
 329 508 l 1,28,29
 395 499 395 499 440 462 c 1,0,-1
EndSplineSet
EndChar
StartChar: sterling
Encoding: 163 163 97
Width: 514
GlyphClass: 2
Flags: W
LayerCount: 2
Back
Fore
SplineSet
565 629 m 1,0,-1
 464 575 l 1,1,2
 439 648 439 648 380 648 c 0,3,4
 341 648 341 648 317 621 c 128,-1,5
 293 594 293 594 287 552 c 2,6,-1
 272 441 l 1,7,-1
 395 441 l 1,8,-1
 382 342 l 1,9,-1
 258 342 l 1,10,-1
 226 100 l 1,11,-1
 505 100 l 1,12,-1
 491 0 l 1,13,-1
 -4 0 l 1,14,-1
 10 100 l 1,15,-1
 98 100 l 1,16,-1
 130 342 l 1,17,-1
 57 342 l 1,18,-1
 70 441 l 1,19,-1
 144 441 l 1,20,-1
 157 538 l 2,21,22
 169 635 169 635 234.5 689.5 c 128,-1,23
 300 744 300 744 394 744 c 0,24,25
 511 744 511 744 565 629 c 1,0,-1
EndSplineSet
EndChar
StartChar: currency
Encoding: 164 164 98
Width: 536
GlyphClass: 2
Flags: W
LayerCount: 2
Back
Fore
SplineSet
427 104 m 1,0,-1
 375 155 l 1,1,2
 327 121 327 121 266 121 c 256,3,4
 205 121 205 121 157 155 c 1,5,-1
 106 104 l 1,6,-1
 37 173 l 1,7,-1
 93 228 l 1,8,9
 68 276 68 276 68 332 c 128,-1,10
 68 388 68 388 93 436 c 1,11,-1
 37 493 l 1,12,-1
 106 562 l 1,13,-1
 158 509 l 1,14,15
 206 543 206 543 266 543 c 256,16,17
 326 543 326 543 374 509 c 1,18,-1
 427 562 l 1,19,-1
 496 493 l 1,20,-1
 439 436 l 1,21,22
 465 386 465 386 465 332 c 128,-1,23
 465 278 465 278 439 229 c 1,24,-1
 496 173 l 1,25,-1
 427 104 l 1,0,-1
266 205 m 0,26,27
 308 205 308 205 339 238 c 128,-1,28
 370 271 370 271 370 334 c 0,29,30
 370 387 370 387 342 423 c 128,-1,31
 314 459 314 459 267 459 c 0,32,33
 221 459 221 459 192 423 c 128,-1,34
 163 387 163 387 163 332 c 0,35,36
 163 272 163 272 195 238.5 c 128,-1,37
 227 205 227 205 266 205 c 0,26,27
EndSplineSet
EndChar
StartChar: yen
Encoding: 165 165 99
Width: 502
GlyphClass: 2
Flags: W
LayerCount: 2
Back
Fore
SplineSet
499 497 m 1,0,-1
 379 320 l 1,1,-1
 474 320 l 1,2,-1
 467 271 l 1,3,-1
 344 271 l 1,4,-1
 307 216 l 1,5,-1
 307 211 l 1,6,-1
 460 211 l 1,7,-1
 453 162 l 1,8,-1
 300 162 l 1,9,-1
 279 0 l 1,10,-1
 164 0 l 1,11,-1
 185 162 l 1,12,-1
 24 162 l 1,13,-1
 31 211 l 1,14,-1
 192 211 l 1,15,-1
 192 216 l 1,16,-1
 167 271 l 1,17,-1
 38 271 l 1,18,-1
 45 320 l 1,19,-1
 146 320 l 1,20,-1
 67 497 l 1,21,-1
 206 497 l 1,22,-1
 273 332 l 1,23,-1
 382 497 l 1,24,-1
 499 497 l 1,0,-1
EndSplineSet
EndChar
StartChar: brokenbar
Encoding: 166 166 100
Width: 238
GlyphClass: 2
Flags: W
LayerCount: 2
Back
Fore
SplineSet
168 392 m 1,0,-1
 70 392 l 1,1,-1
 70 745 l 1,2,-1
 168 745 l 1,3,-1
 168 392 l 1,0,-1
168 -116 m 1,4,-1
 70 -116 l 1,5,-1
 70 237 l 1,6,-1
 168 237 l 1,7,-1
 168 -116 l 1,4,-1
EndSplineSet
EndChar
StartChar: section
Encoding: 167 167 101
Width: 454
GlyphClass: 2
Flags: W
LayerCount: 2
Back
Fore
SplineSet
497 754 m 1,0,-1
 468 676 l 1,1,2
 432 694 432 694 397 694 c 0,3,4
 330 694 330 694 330 578 c 0,5,6
 330 539 330 539 344 418 c 0,7,8
 371 150 371 150 371 60 c 0,9,10
 371 -10 371 -10 334.5 -52 c 128,-1,11
 298 -94 298 -94 230 -103 c 1,12,13
 219 -166 219 -166 173 -198 c 128,-1,14
 127 -230 127 -230 61 -230 c 0,15,16
 8 -230 8 -230 -34 -209 c 1,17,-1
 -2 -134 l 1,18,19
 42 -151 42 -151 64 -151 c 0,20,21
 126 -151 126 -151 126 -54 c 0,22,23
 126 -13 126 -13 123 37.5 c 128,-1,24
 120 88 120 88 117 116.5 c 128,-1,25
 114 145 114 145 107 212.5 c 128,-1,26
 100 280 100 280 98 295 c 0,27,28
 87 407 87 407 87 449 c 0,29,30
 87 635 87 635 232 649 c 1,31,32
 259 775 259 775 401 775 c 0,33,34
 440 775 440 775 497 754 c 1,0,-1
264 71 m 0,35,36
 264 159 264 159 246 323.5 c 128,-1,37
 228 488 228 488 225 559 c 1,38,39
 192 535 192 535 192 453 c 0,40,41
 192 427 192 427 205 287 c 0,42,43
 230 35 230 35 232 -18 c 1,44,45
 264 3 264 3 264 71 c 0,35,36
EndSplineSet
EndChar
StartChar: copyright
Encoding: 169 169 103
Width: 635
GlyphClass: 2
Flags: W
LayerCount: 2
Back
Fore
SplineSet
316 -27 m 0,0,1
 201 -27 201 -27 120 54 c 128,-1,2
 39 135 39 135 39 250 c 128,-1,3
 39 365 39 365 120 446 c 128,-1,4
 201 527 201 527 316 527 c 0,5,6
 430 527 430 527 511.5 445.5 c 128,-1,7
 593 364 593 364 593 250 c 128,-1,8
 593 136 593 136 511.5 54.5 c 128,-1,9
 430 -27 430 -27 316 -27 c 0,0,1
483 82 m 0,10,11
 553 152 553 152 553 250 c 128,-1,12
 553 348 553 348 483.5 417.5 c 128,-1,13
 414 487 414 487 316 487 c 256,14,15
 218 487 218 487 148.5 417.5 c 128,-1,16
 79 348 79 348 79 250 c 128,-1,17
 79 152 79 152 148.5 82.5 c 128,-1,18
 218 13 218 13 316 13 c 256,19,20
 414 13 414 13 483 82 c 0,10,11
450 386 m 1,21,-1
 399 330 l 1,22,23
 367 357 367 357 338 357 c 0,24,25
 298 357 298 357 276 313.5 c 128,-1,26
 254 270 254 270 254 225 c 0,27,28
 254 143 254 143 317 143 c 0,29,30
 353 143 353 143 388 176 c 1,31,-1
 417 112 l 1,32,33
 350 80 350 80 296 80 c 0,34,35
 232 80 232 80 196 116 c 128,-1,36
 160 152 160 152 160 216 c 0,37,38
 160 303 160 303 213.5 362 c 128,-1,39
 267 421 267 421 353 421 c 0,40,41
 407 421 407 421 450 386 c 1,21,-1
EndSplineSet
EndChar
StartChar: ordfeminine
Encoding: 170 170 104
Width: 371
GlyphClass: 2
Flags: W
LayerCount: 2
Back
Fore
SplineSet
370 391 m 1,0,1
 335 370 335 370 299 370 c 0,2,3
 279 370 279 370 264 383 c 128,-1,4
 249 396 249 396 245 416 c 1,5,-1
 241 416 l 1,6,7
 205 368 205 368 145 368 c 0,8,9
 89 368 89 368 60 408.5 c 128,-1,10
 31 449 31 449 31 507 c 0,11,12
 31 589 31 589 79.5 652 c 128,-1,13
 128 715 128 715 210 715 c 0,14,15
 257 715 257 715 290 682 c 1,16,-1
 305 709 l 1,17,-1
 347 709 l 1,18,-1
 311 463 l 2,19,20
 310 458 310 458 310 449 c 0,21,22
 310 425 310 425 326 425 c 0,23,24
 337 425 337 425 358 433 c 1,25,-1
 370 391 l 1,0,1
300 310 m 1,26,-1
 292 252 l 1,27,-1
 65 252 l 1,28,-1
 73 310 l 1,29,-1
 300 310 l 1,26,-1
262 634 m 1,30,31
 235 660 235 660 205 660 c 0,32,33
 172 660 172 660 149.5 630.5 c 128,-1,34
 127 601 127 601 119.5 568.5 c 128,-1,35
 112 536 112 536 112 507 c 0,36,37
 112 424 112 424 160 424 c 0,38,39
 184 424 184 424 202 442.5 c 128,-1,40
 220 461 220 461 231.5 495.5 c 128,-1,41
 243 530 243 530 249.5 560.5 c 128,-1,42
 256 591 256 591 262 634 c 1,30,31
EndSplineSet
EndChar
StartChar: uni00AD
Encoding: 173 173 107
Width: 313
GlyphClass: 2
Flags: W
LayerCount: 2
Back
Fore
SplineSet
270 210 m 1,0,-1
 49 210 l 1,1,-1
 49 305 l 1,2,-1
 270 305 l 1,3,-1
 270 210 l 1,0,-1
EndSplineSet
EndChar
StartChar: registered
Encoding: 174 174 108
Width: 459
GlyphClass: 2
Flags: W
LayerCount: 2
Back
Fore
SplineSet
380 759 m 256,0,1
 442 697 442 697 442 610 c 128,-1,2
 442 523 442 523 380 461 c 128,-1,3
 318 399 318 399 231 399 c 256,4,5
 144 399 144 399 82.5 461 c 128,-1,6
 21 523 21 523 21 610 c 128,-1,7
 21 697 21 697 82.5 759 c 128,-1,8
 144 821 144 821 231 821 c 256,9,10
 318 821 318 821 380 759 c 256,0,1
407 610 m 0,11,12
 407 682 407 682 355.5 733.5 c 128,-1,13
 304 785 304 785 231 785 c 0,14,15
 159 785 159 785 107.5 734 c 128,-1,16
 56 683 56 683 56 610 c 128,-1,17
 56 537 56 537 107.5 486 c 128,-1,18
 159 435 159 435 231 435 c 0,19,20
 304 435 304 435 355.5 486 c 128,-1,21
 407 537 407 537 407 610 c 0,11,12
337 497 m 1,22,-1
 265 497 l 1,23,-1
 214 593 l 1,24,-1
 203 593 l 1,25,-1
 190 497 l 1,26,-1
 130 497 l 1,27,-1
 163 732 l 1,28,-1
 256 732 l 2,29,30
 330 732 330 732 330 677 c 0,31,32
 330 625 330 625 278 604 c 1,33,-1
 337 497 l 1,22,-1
269 668 m 0,34,35
 269 685 269 685 242 685 c 2,36,-1
 216 685 l 1,37,-1
 210 640 l 1,38,-1
 229 640 l 2,39,40
 269 640 269 640 269 668 c 0,34,35
EndSplineSet
EndChar
StartChar: macron
Encoding: 175 175 109
Width: 276
GlyphClass: 2
Flags: W
LayerCount: 2
Back
Fore
SplineSet
302 595 m 1,0,-1
 -28 595 l 1,1,-1
 -28 659 l 1,2,-1
 302 659 l 1,3,-1
 302 595 l 1,0,-1
EndSplineSet
EndChar
StartChar: degree
Encoding: 176 176 110
Width: 388
GlyphClass: 2
Flags: W
LayerCount: 2
Back
Fore
SplineSet
340 593 m 0,0,1
 340 532 340 532 297.5 490 c 128,-1,2
 255 448 255 448 194 448 c 0,3,4
 134 448 134 448 91.5 490.5 c 128,-1,5
 49 533 49 533 49 593 c 128,-1,6
 49 653 49 653 91.5 695.5 c 128,-1,7
 134 738 134 738 194 738 c 256,8,9
 254 738 254 738 297 695.5 c 128,-1,10
 340 653 340 653 340 593 c 0,0,1
250 536 m 256,11,12
 273 560 273 560 273 593 c 128,-1,13
 273 626 273 626 250 650 c 128,-1,14
 227 674 227 674 194 674 c 256,15,16
 161 674 161 674 138.5 650 c 128,-1,17
 116 626 116 626 116 593 c 128,-1,18
 116 560 116 560 138.5 536 c 128,-1,19
 161 512 161 512 194 512 c 256,20,21
 227 512 227 512 250 536 c 256,11,12
EndSplineSet
EndChar
StartChar: twosuperior
Encoding: 178 178 112
Width: 455
GlyphClass: 2
Flags: W
LayerCount: 2
Back
Fore
SplineSet
351 438 m 1,0,-1
 25 438 l 1,1,-1
 25 489 l 1,2,3
 36 497 36 497 54.5 511.5 c 128,-1,4
 73 526 73 526 119.5 567 c 128,-1,5
 166 608 166 608 201.5 645 c 128,-1,6
 237 682 237 682 266.5 727.5 c 128,-1,7
 296 773 296 773 296 805 c 0,8,9
 296 828 296 828 281.5 842 c 128,-1,10
 267 856 267 856 244 856 c 0,11,12
 219 856 219 856 187.5 841.5 c 128,-1,13
 156 827 156 827 137 812 c 2,14,-1
 118 798 l 1,15,-1
 85 864 l 1,16,17
 94 872 94 872 110.5 884 c 128,-1,18
 127 896 127 896 176.5 915.5 c 128,-1,19
 226 935 226 935 274 935 c 0,20,21
 341 935 341 935 375 904 c 128,-1,22
 409 873 409 873 409 823 c 0,23,24
 409 774 409 774 380.5 723.5 c 128,-1,25
 352 673 352 673 307.5 632 c 128,-1,26
 263 591 263 591 237 571 c 128,-1,27
 211 551 211 551 187 536 c 2,28,-1
 183 533 l 1,29,-1
 389 533 l 1,30,-1
 351 438 l 1,0,-1
EndSplineSet
EndChar
StartChar: threesuperior
Encoding: 179 179 113
Width: 455
GlyphClass: 2
Flags: W
LayerCount: 2
Back
Fore
SplineSet
37 425 m 1,0,-1
 32 494 l 1,1,2
 148 500 148 500 214 534.5 c 128,-1,3
 280 569 280 569 280 621 c 0,4,5
 280 672 280 672 189 672 c 1,6,-1
 156 670 l 1,7,-1
 153 728 l 1,8,9
 291 756 291 756 291 825 c 0,10,11
 291 839 291 839 279 847.5 c 128,-1,12
 267 856 267 856 249 856 c 0,13,14
 184 856 184 856 119 806 c 1,15,-1
 86 867 l 1,16,17
 124 896 124 896 176.5 915.5 c 128,-1,18
 229 935 229 935 274 935 c 0,19,20
 326 935 326 935 362 916 c 128,-1,21
 398 897 398 897 398 854 c 0,22,23
 398 812 398 812 372 782.5 c 128,-1,24
 346 753 346 753 302 738 c 1,25,26
 390 721 390 721 390 642 c 0,27,28
 390 621 390 621 383.5 598 c 128,-1,29
 377 575 377 575 354.5 544 c 128,-1,30
 332 513 332 513 295.5 489 c 128,-1,31
 259 465 259 465 192 446.5 c 128,-1,32
 125 428 125 428 37 425 c 1,0,-1
EndSplineSet
EndChar
StartChar: acute
Encoding: 180 180 114
Width: 235
GlyphClass: 2
Flags: W
LayerCount: 2
Back
Fore
SplineSet
298 755 m 1,0,-1
 124 590 l 1,1,-1
 21 590 l 1,2,-1
 153 755 l 1,3,-1
 298 755 l 1,0,-1
EndSplineSet
EndChar
StartChar: mu
Encoding: 181 181 115
Width: 584
GlyphClass: 2
Flags: W
LayerCount: 2
Back
Fore
SplineSet
547 18 m 1,0,1
 541 16 541 16 513 7.5 c 128,-1,2
 485 -1 485 -1 467 -5 c 128,-1,3
 449 -9 449 -9 433 -9 c 0,4,5
 405 -9 405 -9 387.5 9.5 c 128,-1,6
 370 28 370 28 368 57 c 1,7,8
 302 -11 302 -11 242 -11 c 0,9,10
 209 -11 209 -11 182 4 c 1,11,-1
 156 -187 l 1,12,-1
 39 -187 l 1,13,-1
 123 444 l 1,14,-1
 120 497 l 1,15,-1
 245 497 l 1,16,-1
 203 186 l 2,17,18
 200 168 200 168 200 149 c 0,19,20
 200 83 200 83 252 83 c 0,21,22
 309 83 309 83 358 130 c 1,23,-1
 400 444 l 1,24,-1
 396 497 l 1,25,-1
 522 497 l 1,26,-1
 474 131 l 2,27,28
 472 119 472 119 472 108 c 0,29,30
 472 79 472 79 490 79 c 0,31,32
 495 79 495 79 537 91 c 1,33,-1
 547 18 l 1,0,1
EndSplineSet
EndChar
StartChar: periodcentered
Encoding: 183 183 117
Width: 293
GlyphClass: 2
Flags: W
LayerCount: 2
Back
Fore
SplineSet
144 181 m 0,0,1
 113 181 113 181 90 204 c 128,-1,2
 67 227 67 227 67 258 c 0,3,4
 67 290 67 290 89.5 313 c 128,-1,5
 112 336 112 336 144 336 c 256,6,7
 176 336 176 336 199 313 c 128,-1,8
 222 290 222 290 222 258 c 128,-1,9
 222 226 222 226 199 203.5 c 128,-1,10
 176 181 176 181 144 181 c 0,0,1
EndSplineSet
EndChar
StartChar: cedilla
Encoding: 184 184 118
Width: 229
GlyphClass: 2
Flags: W
LayerCount: 2
Back
Fore
SplineSet
209 -112 m 0,0,1
 209 -197 209 -197 51 -220 c 1,2,-1
 35 -158 l 2,3,4
 37 -158 37 -158 46.5 -156.5 c 128,-1,5
 56 -155 56 -155 61 -154 c 128,-1,6
 66 -153 66 -153 75 -151 c 128,-1,7
 84 -149 84 -149 89 -146.5 c 128,-1,8
 94 -144 94 -144 100 -140 c 128,-1,9
 106 -136 106 -136 108.5 -130.5 c 128,-1,10
 111 -125 111 -125 111 -118 c 0,11,12
 111 -99 111 -99 54 -82 c 1,13,-1
 119 13 l 1,14,-1
 195 13 l 1,15,-1
 159 -42 l 1,16,17
 209 -67 209 -67 209 -112 c 0,0,1
EndSplineSet
EndChar
StartChar: onesuperior
Encoding: 185 185 119
Width: 455
GlyphClass: 2
Flags: W
LayerCount: 2
Back
Fore
SplineSet
375 438 m 1,0,-1
 38 438 l 1,1,-1
 48 517 l 1,2,-1
 175 517 l 1,3,-1
 215 820 l 1,4,-1
 91 785 l 1,5,-1
 76 855 l 1,6,7
 168 883 168 883 255 924 c 1,8,-1
 336 924 l 1,9,-1
 283 517 l 1,10,-1
 385 517 l 1,11,-1
 375 438 l 1,0,-1
EndSplineSet
EndChar
StartChar: ordmasculine
Encoding: 186 186 120
Width: 355
GlyphClass: 2
Flags: W
LayerCount: 2
Back
Fore
SplineSet
335 573 m 0,0,1
 335 488 335 488 285 427 c 128,-1,2
 235 366 235 366 152 366 c 0,3,4
 89 366 89 366 53.5 404.5 c 128,-1,5
 18 443 18 443 18 508 c 0,6,7
 18 592 18 592 68 653.5 c 128,-1,8
 118 715 118 715 200 715 c 0,9,10
 264 715 264 715 299.5 676 c 128,-1,11
 335 637 335 637 335 573 c 0,0,1
258 310 m 1,12,-1
 250 252 l 1,13,-1
 23 252 l 1,14,-1
 31 310 l 1,15,-1
 258 310 l 1,12,-1
250 576 m 0,16,17
 250 660 250 660 192 660 c 0,18,19
 159 660 159 660 137.5 631 c 128,-1,20
 116 602 116 602 109 569.5 c 128,-1,21
 102 537 102 537 102 505 c 0,22,23
 102 421 102 421 161 421 c 0,24,25
 193 421 193 421 214.5 449.5 c 128,-1,26
 236 478 236 478 243 510.5 c 128,-1,27
 250 543 250 543 250 576 c 0,16,17
EndSplineSet
EndChar
StartChar: onequarter
Encoding: 188 188 122
Width: 1049
GlyphClass: 3
Flags: W
LayerCount: 2
Back
Fore
SplineSet
880 0 m 1,0,-1
 772 0 l 1,1,-1
 785 101 l 1,2,-1
 578 101 l 1,3,-1
 578 153 l 1,4,-1
 837 486 l 1,5,-1
 944 486 l 1,6,-1
 903 180 l 1,7,-1
 971 180 l 1,8,-1
 960 101 l 1,9,-1
 893 101 l 1,10,-1
 880 0 l 1,0,-1
795 180 m 1,11,-1
 811 297 l 2,12,13
 812 306 812 306 816.5 328 c 128,-1,14
 821 350 821 350 826 368 c 2,15,-1
 830 386 l 1,16,17
 807 333 807 333 769 283 c 2,18,-1
 690 180 l 1,19,-1
 795 180 l 1,11,-1
399 -27 m 1,20,-1
 320 -27 l 1,21,-1
 719 753 l 1,22,-1
 799 753 l 1,23,-1
 399 -27 l 1,20,-1
406 246 m 1,24,-1
 69 246 l 1,25,-1
 79 325 l 1,26,-1
 206 325 l 1,27,-1
 246 628 l 1,28,-1
 122 593 l 1,29,-1
 107 663 l 1,30,31
 199 691 199 691 286 732 c 1,32,-1
 367 732 l 1,33,-1
 314 325 l 1,34,-1
 416 325 l 1,35,-1
 406 246 l 1,24,-1
EndSplineSet
Ligature2: "Ligature Substitution lookup 6 subtable" one fraction four
Ligature2: "Ligature Substitution lookup 6 subtable" one slash four
EndChar
StartChar: onehalf
Encoding: 189 189 123
Width: 1097
GlyphClass: 3
Flags: W
LayerCount: 2
Back
Fore
SplineSet
961 0 m 1,0,-1
 638 0 l 1,1,-1
 638 52 l 1,2,-1
 648 60 l 2,3,4
 701 103 701 103 752.5 149.5 c 128,-1,5
 804 196 804 196 855 259.5 c 128,-1,6
 906 323 906 323 906 361 c 0,7,8
 906 383 906 383 891 396 c 128,-1,9
 876 409 876 409 853 409 c 0,10,11
 799 409 799 409 730 357 c 1,12,-1
 697 426 l 1,13,14
 793 497 793 497 889 497 c 0,15,16
 950 497 950 497 989 469 c 128,-1,17
 1028 441 1028 441 1028 384 c 0,18,19
 1028 311 1028 311 964 235.5 c 128,-1,20
 900 160 900 160 819 106 c 1,21,-1
 1001 106 l 1,22,-1
 961 0 l 1,0,-1
400 -27 m 1,23,-1
 321 -27 l 1,24,-1
 720 753 l 1,25,-1
 800 753 l 1,26,-1
 400 -27 l 1,23,-1
407 246 m 1,27,-1
 70 246 l 1,28,-1
 80 325 l 1,29,-1
 207 325 l 1,30,-1
 247 628 l 1,31,-1
 123 593 l 1,32,-1
 108 663 l 1,33,34
 200 691 200 691 287 732 c 1,35,-1
 368 732 l 1,36,-1
 315 325 l 1,37,-1
 417 325 l 1,38,-1
 407 246 l 1,27,-1
EndSplineSet
Ligature2: "Ligature Substitution lookup 6 subtable" one fraction two
Ligature2: "Ligature Substitution lookup 6 subtable" one slash two
EndChar
StartChar: threequarters
Encoding: 190 190 124
Width: 1004
GlyphClass: 3
Flags: W
LayerCount: 2
Back
Fore
SplineSet
751 180 m 1,0,-1
 767 297 l 1,1,-1
 787 386 l 1,2,3
 762 332 762 332 725 283 c 2,4,-1
 647 180 l 1,5,-1
 751 180 l 1,0,-1
68 233 m 1,6,-1
 62 302 l 1,7,8
 180 308 180 308 245 342 c 128,-1,9
 310 376 310 376 310 429 c 0,10,11
 310 480 310 480 220 480 c 1,12,-1
 187 478 l 1,13,-1
 184 536 l 1,14,15
 322 565 322 565 322 632 c 0,16,17
 322 647 322 647 310 655.5 c 128,-1,18
 298 664 298 664 279 664 c 0,19,20
 249 664 249 664 212.5 649.5 c 128,-1,21
 176 635 176 635 150 614 c 1,22,-1
 117 675 l 1,23,24
 156 704 156 704 208.5 723.5 c 128,-1,25
 261 743 261 743 306 743 c 0,26,27
 358 743 358 743 393 724.5 c 128,-1,28
 428 706 428 706 428 663 c 0,29,30
 428 621 428 621 402 591 c 128,-1,31
 376 561 376 561 334 546 c 1,32,33
 420 529 420 529 420 450 c 0,34,35
 420 429 420 429 414 406 c 128,-1,36
 408 383 408 383 385.5 352 c 128,-1,37
 363 321 363 321 327 297.5 c 128,-1,38
 291 274 291 274 223.5 255 c 128,-1,39
 156 236 156 236 68 233 c 1,6,-1
917 101 m 1,40,-1
 849 101 l 1,41,-1
 836 0 l 1,42,-1
 728 0 l 1,43,-1
 741 101 l 1,44,-1
 534 101 l 1,45,-1
 534 153 l 1,46,-1
 793 486 l 1,47,-1
 900 486 l 1,48,-1
 859 180 l 1,49,-1
 928 180 l 1,50,-1
 917 101 l 1,40,-1
356 -27 m 1,51,-1
 277 -27 l 1,52,-1
 676 753 l 1,53,-1
 756 753 l 1,54,-1
 356 -27 l 1,51,-1
EndSplineSet
Ligature2: "Ligature Substitution lookup 6 subtable" three fraction four
Ligature2: "Ligature Substitution lookup 6 subtable" three slash four
EndChar
StartChar: questiondown
Encoding: 191 191 125
Width: 418
GlyphClass: 2
Flags: W
LayerCount: 2
Back
Fore
SplineSet
378 250 m 0,0,1
 378 206 378 206 353 173.5 c 128,-1,2
 328 141 328 141 292.5 122 c 128,-1,3
 257 103 257 103 221.5 86 c 128,-1,4
 186 69 186 69 161 45.5 c 128,-1,5
 136 22 136 22 136 -8 c 0,6,7
 136 -27 136 -27 153.5 -39 c 128,-1,8
 171 -51 171 -51 190 -51 c 0,9,10
 237 -51 237 -51 281 -28 c 1,11,-1
 306 -112 l 1,12,13
 236 -132 236 -132 180 -132 c 0,14,15
 114 -132 114 -132 63.5 -98 c 128,-1,16
 13 -64 13 -64 13 -1 c 0,17,18
 13 48 13 48 39 86 c 128,-1,19
 65 124 65 124 101.5 146 c 128,-1,20
 138 168 138 168 175 185 c 128,-1,21
 212 202 212 202 238 220.5 c 128,-1,22
 264 239 264 239 264 259 c 0,23,24
 264 278 264 278 243 290.5 c 128,-1,25
 222 303 222 303 200 306.5 c 128,-1,26
 178 310 178 310 157 310 c 2,27,-1
 137 310 l 1,28,-1
 163 403 l 1,29,30
 215 400 215 400 260 386.5 c 128,-1,31
 305 373 305 373 341.5 337.5 c 128,-1,32
 378 302 378 302 378 250 c 0,0,1
315 461 m 0,33,34
 284 461 284 461 261 484 c 128,-1,35
 238 507 238 507 238 538 c 0,36,37
 238 570 238 570 260.5 593 c 128,-1,38
 283 616 283 616 315 616 c 256,39,40
 347 616 347 616 370 593 c 128,-1,41
 393 570 393 570 393 538 c 128,-1,42
 393 506 393 506 370 483.5 c 128,-1,43
 347 461 347 461 315 461 c 0,33,34
EndSplineSet
EndChar
StartChar: AE
Encoding: 198 198 132
Width: 862
GlyphClass: 2
Flags: W
LayerCount: 2
Back
Fore
SplineSet
887 732 m 1,0,-1
 873 633 l 1,1,-1
 606 633 l 1,2,-1
 577 426 l 1,3,-1
 792 426 l 1,4,-1
 778 327 l 1,5,-1
 563 327 l 1,6,-1
 531 99 l 1,7,-1
 798 99 l 1,8,-1
 784 0 l 1,9,-1
 379 0 l 1,10,-1
 409 210 l 1,11,-1
 204 210 l 1,12,-1
 67 0 l 1,13,-1
 -55 0 l 1,14,-1
 378 670 l 1,15,-1
 373 732 l 1,16,-1
 887 732 l 1,0,-1
466 633 m 1,17,-1
 429 562 l 1,18,-1
 268 308 l 1,19,-1
 422 308 l 1,20,-1
 466 633 l 1,17,-1
EndSplineSet
Position2: "'cpsp' Capital Spacing lookup 0 subtable" dx=7 dy=0 dh=14 dv=0
EndChar
StartChar: Ccedilla
Encoding: 199 199 133
Width: 585
GlyphClass: 2
Flags: W
LayerCount: 2
Back
Fore
SplineSet
622 675 m 1,0,-1
 541 583 l 1,1,2
 519 614 519 614 478.5 631.5 c 128,-1,3
 438 649 438 649 398 649 c 0,4,5
 338 649 338 649 290.5 618 c 128,-1,6
 243 587 243 587 215.5 537.5 c 128,-1,7
 188 488 188 488 174 432 c 128,-1,8
 160 376 160 376 160 320 c 0,9,10
 160 263 160 263 174 212 c 128,-1,11
 188 161 188 161 227 121.5 c 128,-1,12
 266 82 266 82 324 82 c 0,13,14
 412 82 412 82 496 157 c 1,15,-1
 543 62 l 1,16,17
 438 -2 438 -2 344 -10 c 1,18,-1
 323 -42 l 1,19,20
 373 -67 373 -67 373 -112 c 0,21,22
 373 -197 373 -197 215 -220 c 1,23,-1
 199 -158 l 2,24,25
 201 -158 201 -158 210.5 -156.5 c 128,-1,26
 220 -155 220 -155 225 -154 c 128,-1,27
 230 -153 230 -153 239 -151 c 128,-1,28
 248 -149 248 -149 253 -146.5 c 128,-1,29
 258 -144 258 -144 264 -140 c 128,-1,30
 270 -136 270 -136 272.5 -130.5 c 128,-1,31
 275 -125 275 -125 275 -118 c 0,32,33
 275 -99 275 -99 218 -82 c 1,34,-1
 267 -10 l 1,35,36
 145 1 145 1 81 81.5 c 128,-1,37
 17 162 17 162 17 293 c 0,38,39
 17 380 17 380 43.5 460.5 c 128,-1,40
 70 541 70 541 118 605 c 128,-1,41
 166 669 166 669 241 707.5 c 128,-1,42
 316 746 316 746 406 746 c 0,43,44
 464 746 464 746 526 728 c 128,-1,45
 588 710 588 710 622 675 c 1,0,-1
EndSplineSet
Position2: "'cpsp' Capital Spacing lookup 0 subtable" dx=7 dy=0 dh=14 dv=0
EndChar
StartChar: Eth
Encoding: 208 208 142
Width: 664
GlyphClass: 2
Flags: W
LayerCount: 2
Back
Fore
SplineSet
258 0 m 2,0,-1
 11 0 l 1,1,-1
 54 324 l 1,2,-1
 -24 324 l 1,3,-1
 -13 412 l 1,4,-1
 66 412 l 1,5,-1
 100 672 l 2,6,7
 100 675 100 675 97 702 c 128,-1,8
 94 729 94 729 93 732 c 2,9,-1
 356 732 l 2,10,11
 495 732 495 732 571 652 c 128,-1,12
 647 572 647 572 647 435 c 0,13,14
 647 341 647 341 612 249 c 128,-1,15
 577 157 577 157 509 95 c 0,16,17
 406 0 406 0 258 0 c 2,0,-1
155 99 m 1,18,-1
 266 99 l 2,19,20
 344 99 344 99 400 148.5 c 128,-1,21
 456 198 456 198 480.5 269 c 128,-1,22
 505 340 505 340 505 422 c 0,23,24
 505 515 505 515 464 574 c 128,-1,25
 423 633 423 633 335 633 c 2,26,-1
 226 633 l 1,27,-1
 197 412 l 1,28,-1
 340 412 l 1,29,-1
 328 324 l 1,30,-1
 185 324 l 1,31,-1
 155 99 l 1,18,-1
EndSplineSet
Position2: "'cpsp' Capital Spacing lookup 0 subtable" dx=7 dy=0 dh=14 dv=0
EndChar
StartChar: Oslash
Encoding: 216 216 150
Width: 708
GlyphClass: 2
Flags: W
LayerCount: 2
Back
Fore
SplineSet
695 439 m 0,0,1
 695 352 695 352 668.5 271.5 c 128,-1,2
 642 191 642 191 593.5 128 c 128,-1,3
 545 65 545 65 470 27 c 128,-1,4
 395 -11 395 -11 304 -11 c 0,5,6
 218 -11 218 -11 154 25 c 1,7,-1
 83 -66 l 1,8,-1
 12 -11 l 1,9,-1
 86 84 l 1,10,11
 22 163 22 163 22 295 c 0,12,13
 22 412 22 412 65.5 512.5 c 128,-1,14
 109 613 109 613 198 678 c 128,-1,15
 287 743 287 743 406 743 c 0,16,17
 505 743 505 743 570 702 c 1,18,-1
 624 770 l 1,19,-1
 695 715 l 1,20,-1
 637 641 l 1,21,22
 695 564 695 564 695 439 c 0,0,1
498 610 m 1,23,24
 458 648 458 648 395 648 c 0,25,26
 345 648 345 648 304 625 c 128,-1,27
 263 602 263 602 237.5 565.5 c 128,-1,28
 212 529 212 529 194.5 482 c 128,-1,29
 177 435 177 435 169.5 389 c 128,-1,30
 162 343 162 343 162 298 c 0,31,32
 162 243 162 243 175 198 c 1,33,-1
 498 610 l 1,23,24
554 434 m 0,34,35
 554 483 554 483 544 523 c 1,36,-1
 225 116 l 1,37,38
 263 84 263 84 321 84 c 0,39,40
 383 84 383 84 430.5 118 c 128,-1,41
 478 152 478 152 503.5 206.5 c 128,-1,42
 529 261 529 261 541.5 319 c 128,-1,43
 554 377 554 377 554 434 c 0,34,35
EndSplineSet
Position2: "'cpsp' Capital Spacing lookup 0 subtable" dx=7 dy=0 dh=14 dv=0
EndChar
StartChar: Thorn
Encoding: 222 222 156
Width: 575
GlyphClass: 2
Flags: W
LayerCount: 2
Back
Fore
SplineSet
159 0 m 1,0,-1
 29 0 l 1,1,-1
 118 671 l 2,2,3
 118 672 118 672 115.5 700.5 c 128,-1,4
 113 729 113 729 113 732 c 2,5,-1
 258 732 l 1,6,-1
 243 617 l 1,7,-1
 317 617 l 2,8,9
 420 617 420 617 482 574.5 c 128,-1,10
 544 532 544 532 544 437 c 0,11,12
 544 372 544 372 519.5 321 c 128,-1,13
 495 270 495 270 454 240 c 128,-1,14
 413 210 413 210 364 194.5 c 128,-1,15
 315 179 315 179 261 179 c 2,16,-1
 183 179 l 1,17,-1
 159 0 l 1,0,-1
197 276 m 1,18,-1
 277 276 l 2,19,20
 333 276 333 276 368 317.5 c 128,-1,21
 403 359 403 359 403 422 c 0,22,23
 403 467 403 467 379.5 492.5 c 128,-1,24
 356 518 356 518 310 518 c 2,25,-1
 229 518 l 1,26,-1
 197 276 l 1,18,-1
EndSplineSet
Position2: "'cpsp' Capital Spacing lookup 0 subtable" dx=7 dy=0 dh=14 dv=0
EndChar
StartChar: germandbls
Encoding: 223 223 157
Width: 536
GlyphClass: 2
Flags: W
LayerCount: 2
Back
Fore
SplineSet
511 221 m 0,0,1
 511 121 511 121 443.5 54.5 c 128,-1,2
 376 -12 376 -12 276 -12 c 0,3,4
 214 -12 214 -12 156 18 c 1,5,-1
 204 95 l 1,6,7
 247 78 247 78 276 78 c 0,8,9
 322 78 322 78 351.5 114.5 c 128,-1,10
 381 151 381 151 381 197 c 0,11,12
 381 233 381 233 355 257.5 c 128,-1,13
 329 282 329 282 298.5 293.5 c 128,-1,14
 268 305 268 305 242 326 c 128,-1,15
 216 347 216 347 216 376 c 0,16,17
 216 404 216 404 232.5 426 c 128,-1,18
 249 448 249 448 272.5 463 c 128,-1,19
 296 478 296 478 319.5 493 c 128,-1,20
 343 508 343 508 359.5 532 c 128,-1,21
 376 556 376 556 376 587 c 0,22,23
 376 611 376 611 359 629 c 128,-1,24
 342 647 342 647 318 647 c 0,25,26
 218 647 218 647 192 464 c 2,27,-1
 124 -42 l 2,28,29
 112 -131 112 -131 61.5 -180.5 c 128,-1,30
 11 -230 11 -230 -72 -230 c 0,31,32
 -110 -230 -110 -230 -143 -219 c 128,-1,33
 -176 -208 -176 -208 -190 -196 c 2,34,-1
 -203 -185 l 1,35,-1
 -156 -101 l 1,36,37
 -120 -140 -120 -140 -80 -140 c 0,38,39
 -41 -140 -41 -140 -21.5 -119.5 c 128,-1,40
 -2 -99 -2 -99 5 -44 c 2,41,-1
 66 406 l 1,42,-1
 -6 406 l 1,43,-1
 6 497 l 1,44,-1
 78 497 l 1,45,-1
 79 502 l 1,46,47
 94 613 94 613 160.5 678.5 c 128,-1,48
 227 744 227 744 330 744 c 0,49,50
 405 744 405 744 454.5 708.5 c 128,-1,51
 504 673 504 673 504 602 c 0,52,53
 504 558 504 558 488 525.5 c 128,-1,54
 472 493 472 493 449.5 476 c 128,-1,55
 427 459 427 459 404.5 447.5 c 128,-1,56
 382 436 382 436 366 426 c 128,-1,57
 350 416 350 416 350 405 c 0,58,59
 350 392 350 392 375 378.5 c 128,-1,60
 400 365 400 365 430.5 351.5 c 128,-1,61
 461 338 461 338 486 304 c 128,-1,62
 511 270 511 270 511 221 c 0,0,1
EndSplineSet
EndChar
StartChar: ae
Encoding: 230 230 164
Width: 762
GlyphClass: 2
Flags: W
LayerCount: 2
Back
Fore
SplineSet
443 426 m 1,0,1
 482 472 482 472 530 491 c 128,-1,2
 578 510 578 510 617 510 c 0,3,4
 680 510 680 510 716 480.5 c 128,-1,5
 752 451 752 451 752 394 c 0,6,7
 752 362 752 362 737.5 330 c 128,-1,8
 723 298 723 298 691 266.5 c 128,-1,9
 659 235 659 235 596.5 215 c 128,-1,10
 534 195 534 195 449 194 c 1,11,12
 453 137 453 137 481 106.5 c 128,-1,13
 509 76 509 76 550 76 c 0,14,15
 614 76 614 76 694 137 c 1,16,-1
 736 54 l 1,17,18
 733 51 733 51 727 46.5 c 128,-1,19
 721 42 721 42 701.5 31 c 128,-1,20
 682 20 682 20 660.5 11 c 128,-1,21
 639 2 639 2 605.5 -5 c 128,-1,22
 572 -12 572 -12 538 -12 c 0,23,24
 423 -12 423 -12 368 72 c 1,25,26
 296 -12 296 -12 192 -12 c 0,27,28
 107 -12 107 -12 64 48.5 c 128,-1,29
 21 109 21 109 21 197 c 0,30,31
 21 275 21 275 51 345 c 128,-1,32
 81 415 81 415 144 462 c 128,-1,33
 207 509 207 509 290 509 c 0,34,35
 392 509 392 509 443 426 c 1,0,1
629 392 m 0,36,37
 629 426 629 426 590 426 c 0,38,39
 557 426 557 426 514 389 c 128,-1,40
 471 352 471 352 455 279 c 1,41,42
 533 281 533 281 581 313.5 c 128,-1,43
 629 346 629 346 629 392 c 0,36,37
368 387 m 1,44,45
 328 427 328 427 282 427 c 0,46,47
 244 427 244 427 215 401.5 c 128,-1,48
 186 376 186 376 171 338 c 128,-1,49
 156 300 156 300 149 263.5 c 128,-1,50
 142 227 142 227 142 197 c 0,51,52
 142 71 142 71 215 71 c 0,53,54
 251 71 251 71 278 99 c 128,-1,55
 305 127 305 127 322.5 178.5 c 128,-1,56
 340 230 340 230 349.5 277 c 128,-1,57
 359 324 359 324 368 387 c 1,44,45
EndSplineSet
EndChar
StartChar: ccedilla
Encoding: 231 231 165
Width: 421
GlyphClass: 2
Flags: W
LayerCount: 2
Back
Fore
SplineSet
437 462 m 1,0,-1
 368 383 l 1,1,2
 326 427 326 427 279 427 c 0,3,4
 243 427 243 427 215.5 404.5 c 128,-1,5
 188 382 188 382 173 346.5 c 128,-1,6
 158 311 158 311 151 276 c 128,-1,7
 144 241 144 241 144 209 c 0,8,9
 144 152 144 152 166.5 114 c 128,-1,10
 189 76 189 76 240 76 c 0,11,12
 290 76 290 76 351 121 c 1,13,-1
 387 35 l 1,14,15
 317 -2 317 -2 255 -10 c 1,16,-1
 234 -42 l 1,17,18
 284 -67 284 -67 284 -112 c 0,19,20
 284 -197 284 -197 126 -220 c 1,21,-1
 110 -158 l 2,22,23
 112 -158 112 -158 121.5 -156.5 c 128,-1,24
 131 -155 131 -155 136 -154 c 128,-1,25
 141 -153 141 -153 150 -151 c 128,-1,26
 159 -149 159 -149 164 -146.5 c 128,-1,27
 169 -144 169 -144 175 -140 c 128,-1,28
 181 -136 181 -136 183.5 -130.5 c 128,-1,29
 186 -125 186 -125 186 -118 c 0,30,31
 186 -99 186 -99 129 -82 c 1,32,-1
 179 -9 l 1,33,34
 105 4 105 4 61 61 c 128,-1,35
 17 118 17 118 17 197 c 0,36,37
 17 327 17 327 93 418.5 c 128,-1,38
 169 510 169 510 292 510 c 0,39,40
 328 510 328 510 369.5 497 c 128,-1,41
 411 484 411 484 437 462 c 1,0,-1
EndSplineSet
EndChar
StartChar: eth
Encoding: 240 240 174
Width: 536
GlyphClass: 2
Flags: W
LayerCount: 2
Back
Fore
SplineSet
451 723 m 1,0,-1
 357 672 l 1,1,2
 483 482 483 482 483 307 c 0,3,4
 483 175 483 175 409 82 c 128,-1,5
 335 -11 335 -11 215 -11 c 0,6,7
 121 -11 121 -11 68.5 49.5 c 128,-1,8
 16 110 16 110 16 206 c 0,9,10
 16 329 16 329 93 419.5 c 128,-1,11
 170 510 170 510 284 510 c 0,12,13
 296 510 296 510 314 508 c 1,14,15
 285 578 285 578 260 619 c 1,16,-1
 165 568 l 1,17,-1
 130 626 l 1,18,-1
 224 677 l 1,19,20
 202 707 202 707 182 731 c 1,21,-1
 273 783 l 1,22,23
 281 774 281 774 296.5 755.5 c 128,-1,24
 312 737 312 737 319 728 c 1,25,-1
 421 783 l 1,26,-1
 451 723 l 1,0,-1
226 72 m 0,27,28
 267 72 267 72 295 99 c 128,-1,29
 323 126 323 126 335.5 168 c 128,-1,30
 348 210 348 210 352.5 243 c 128,-1,31
 357 276 357 276 357 306 c 0,32,33
 357 428 357 428 273 428 c 0,34,35
 234 428 234 428 206 400 c 128,-1,36
 178 372 178 372 165 330.5 c 128,-1,37
 152 289 152 289 147 256 c 128,-1,38
 142 223 142 223 142 198 c 0,39,40
 142 72 142 72 226 72 c 0,27,28
EndSplineSet
EndChar
StartChar: divide
Encoding: 247 247 181
Width: 630
GlyphClass: 2
Flags: W
LayerCount: 2
Back
Fore
SplineSet
564 204 m 1,0,-1
 68 204 l 1,1,-1
 68 292 l 1,2,-1
 564 292 l 1,3,-1
 564 204 l 1,0,-1
315 -11 m 0,4,5
 284 -11 284 -11 261 12 c 128,-1,6
 238 35 238 35 238 66 c 0,7,8
 238 98 238 98 260.5 121 c 128,-1,9
 283 144 283 144 315 144 c 256,10,11
 347 144 347 144 370 121 c 128,-1,12
 393 98 393 98 393 66 c 128,-1,13
 393 34 393 34 370 11.5 c 128,-1,14
 347 -11 347 -11 315 -11 c 0,4,5
314 354 m 0,15,16
 283 354 283 354 260 377 c 128,-1,17
 237 400 237 400 237 431 c 0,18,19
 237 463 237 463 259.5 486 c 128,-1,20
 282 509 282 509 314 509 c 256,21,22
 346 509 346 509 369 486 c 128,-1,23
 392 463 392 463 392 431 c 128,-1,24
 392 399 392 399 369 376.5 c 128,-1,25
 346 354 346 354 314 354 c 0,15,16
EndSplineSet
EndChar
StartChar: oslash
Encoding: 248 248 182
Width: 555
GlyphClass: 2
Flags: W
LayerCount: 2
Back
Fore
SplineSet
524 512 m 1,0,-1
 463 433 l 1,1,2
 503 376 503 376 503 295 c 0,3,4
 503 217 503 217 471 147.5 c 128,-1,5
 439 78 439 78 376.5 33 c 128,-1,6
 314 -12 314 -12 235 -12 c 0,7,8
 178 -12 178 -12 137 11 c 1,9,-1
 72 -73 l 1,10,-1
 5 -29 l 1,11,-1
 77 64 l 1,12,13
 37 121 37 121 37 203 c 0,14,15
 37 324 37 324 112 417 c 128,-1,16
 187 510 187 510 305 510 c 0,17,18
 361 510 361 510 404 487 c 1,19,-1
 457 556 l 1,20,-1
 524 512 l 1,0,-1
344 410 m 1,21,22
 324 428 324 428 294 428 c 0,23,24
 258 428 258 428 230.5 403.5 c 128,-1,25
 203 379 203 379 189 341 c 128,-1,26
 175 303 175 303 168.5 266.5 c 128,-1,27
 162 230 162 230 162 197 c 2,28,-1
 162 175 l 1,29,-1
 344 410 l 1,21,22
378 305 m 2,30,-1
 378 323 l 1,31,-1
 195 87 l 1,32,33
 216 68 216 68 246 68 c 0,34,35
 283 68 283 68 311 93 c 128,-1,36
 339 118 339 118 352.5 157 c 128,-1,37
 366 196 366 196 372 233 c 128,-1,38
 378 270 378 270 378 305 c 2,30,-1
EndSplineSet
EndChar
StartChar: ugrave
Encoding: 249 249 183
Width: 510
GlyphClass: 2
Flags: W
LayerCount: 2
Back
Fore
SplineSet
504 22 m 1,0,1
 457 -9 457 -9 396 -9 c 0,2,3
 366 -9 366 -9 343 10 c 128,-1,4
 320 29 320 29 314 59 c 1,5,-1
 310 59 l 1,6,7
 285 26 285 26 241 7.5 c 128,-1,8
 197 -11 197 -11 153 -11 c 0,9,10
 27 -11 27 -11 27 111 c 0,11,12
 27 128 27 128 30 146 c 2,13,-1
 70 453 l 1,14,-1
 65 497 l 1,15,-1
 192 497 l 1,16,-1
 149 169 l 2,17,18
 147 160 147 160 147 142 c 0,19,20
 147 84 147 84 196 84 c 0,21,22
 227 84 227 84 252 107 c 128,-1,23
 277 130 277 130 292 167.5 c 128,-1,24
 307 205 307 205 316 239 c 128,-1,25
 325 273 325 273 329 307 c 2,26,-1
 348 453 l 1,27,-1
 342 497 l 1,28,-1
 470 497 l 1,29,-1
 416 130 l 2,30,31
 414 123 414 123 414 109 c 0,32,33
 414 73 414 73 439 73 c 0,34,35
 456 73 456 73 487 85 c 1,36,-1
 504 22 l 1,0,1
324 592 m 1,37,-1
 221 592 l 1,38,-1
 70 757 l 1,39,-1
 215 757 l 1,40,-1
 324 592 l 1,37,-1
EndSplineSet
EndChar
StartChar: thorn
Encoding: 254 254 188
Width: 558
GlyphClass: 2
Flags: W
LayerCount: 2
Back
Fore
SplineSet
257 768 m 1,0,-1
 216 457 l 1,1,2
 280 508 280 508 355 508 c 0,3,4
 434 508 434 508 475.5 446 c 128,-1,5
 517 384 517 384 517 297 c 0,6,7
 517 170 517 170 447.5 79 c 128,-1,8
 378 -12 378 -12 257 -12 c 0,9,10
 198 -12 198 -12 159 18 c 1,11,-1
 128 -217 l 1,12,-1
 14 -217 l 1,13,-1
 136 715 l 1,14,15
 136 753 136 753 133 768 c 1,16,-1
 257 768 l 1,0,-1
205 368 m 1,17,-1
 183 205 l 2,18,19
 181 194 181 194 181 172 c 0,20,21
 181 127 181 127 201 98.5 c 128,-1,22
 221 70 221 70 264 70 c 0,23,24
 300 70 300 70 326.5 95.5 c 128,-1,25
 353 121 353 121 366 158 c 128,-1,26
 379 195 379 195 385 226.5 c 128,-1,27
 391 258 391 258 391 281 c 0,28,29
 391 336 391 336 370 376 c 128,-1,30
 349 416 349 416 304 416 c 0,31,32
 251 416 251 416 205 368 c 1,17,-1
EndSplineSet
EndChar
StartChar: dotlessi
Encoding: 305 305 190
Width: 228
GlyphClass: 2
Flags: W
LayerCount: 2
Back
Fore
SplineSet
207 497 m 1,0,-1
 148 55 l 1,1,-1
 151 0 l 1,2,-1
 27 0 l 1,3,-1
 86 443 l 1,4,-1
 83 497 l 1,5,-1
 207 497 l 1,0,-1
EndSplineSet
EndChar
StartChar: Lslash
Encoding: 321 321 191
Width: 492
GlyphClass: 2
Flags: W
LayerCount: 2
Back
Fore
SplineSet
431 0 m 1,0,-1
 26 0 l 1,1,-1
 59 245 l 1,2,-1
 -6 215 l 1,3,-1
 5 312 l 1,4,-1
 71 342 l 1,5,-1
 115 672 l 2,6,7
 115 676 115 676 113 703 c 128,-1,8
 111 730 111 730 111 732 c 2,9,-1
 255 732 l 1,10,-1
 212 406 l 1,11,-1
 411 498 l 1,12,-1
 398 400 l 1,13,-1
 199 309 l 1,14,-1
 171 99 l 1,15,-1
 444 99 l 1,16,-1
 431 0 l 1,0,-1
EndSplineSet
Position2: "'cpsp' Capital Spacing lookup 0 subtable" dx=7 dy=0 dh=14 dv=0
EndChar
StartChar: lslash
Encoding: 322 322 192
Width: 251
GlyphClass: 2
Flags: W
LayerCount: 2
Back
Fore
SplineSet
131 0 m 1,0,-1
 15 0 l 1,1,-1
 51 274 l 1,2,-1
 -9 246 l 1,3,-1
 3 343 l 1,4,-1
 64 371 l 1,5,-1
 109 715 l 1,6,-1
 106 768 l 1,7,-1
 232 768 l 1,8,-1
 187 428 l 1,9,-1
 252 458 l 1,10,-1
 239 360 l 1,11,-1
 174 330 l 1,12,-1
 131 0 l 1,0,-1
EndSplineSet
EndChar
StartChar: OE
Encoding: 338 338 193
Width: 993
GlyphClass: 2
Flags: W
LayerCount: 2
Back
Fore
SplineSet
1018 732 m 1,0,-1
 1005 633 l 1,1,-1
 712 633 l 1,2,-1
 684 426 l 1,3,-1
 908 426 l 1,4,-1
 895 327 l 1,5,-1
 671 327 l 1,6,-1
 641 99 l 1,7,-1
 933 99 l 1,8,-1
 920 0 l 1,9,-1
 497 0 l 1,10,-1
 506 68 l 1,11,12
 460 24 460 24 411.5 6.5 c 128,-1,13
 363 -11 363 -11 300 -11 c 0,14,15
 164 -11 164 -11 90.5 73 c 128,-1,16
 17 157 17 157 17 295 c 0,17,18
 17 412 17 412 60.5 512.5 c 128,-1,19
 104 613 104 613 193 678 c 128,-1,20
 282 743 282 743 401 743 c 0,21,22
 516 743 516 743 586 667 c 1,23,-1
 595 732 l 1,24,-1
 1018 732 l 1,0,-1
549 434 m 0,25,26
 549 526 549 526 512 587 c 128,-1,27
 475 648 475 648 390 648 c 0,28,29
 340 648 340 648 299 625 c 128,-1,30
 258 602 258 602 232.5 565.5 c 128,-1,31
 207 529 207 529 189.5 482 c 128,-1,32
 172 435 172 435 164.5 389 c 128,-1,33
 157 343 157 343 157 298 c 0,34,35
 157 207 157 207 194 145.5 c 128,-1,36
 231 84 231 84 316 84 c 0,37,38
 378 84 378 84 425.5 118 c 128,-1,39
 473 152 473 152 498.5 206.5 c 128,-1,40
 524 261 524 261 536.5 319 c 128,-1,41
 549 377 549 377 549 434 c 0,25,26
EndSplineSet
Position2: "'cpsp' Capital Spacing lookup 0 subtable" dx=7 dy=0 dh=14 dv=0
EndChar
StartChar: oe
Encoding: 339 339 194
Width: 797
GlyphClass: 2
Flags: W
LayerCount: 2
Back
Fore
SplineSet
787 394 m 0,0,1
 787 362 787 362 772.5 330 c 128,-1,2
 758 298 758 298 726 266.5 c 128,-1,3
 694 235 694 235 631.5 215 c 128,-1,4
 569 195 569 195 484 194 c 1,5,6
 488 137 488 137 516 106.5 c 128,-1,7
 544 76 544 76 585 76 c 0,8,9
 649 76 649 76 729 137 c 1,10,-1
 771 54 l 1,11,12
 768 51 768 51 762 46.5 c 128,-1,13
 756 42 756 42 736.5 31 c 128,-1,14
 717 20 717 20 695.5 11 c 128,-1,15
 674 2 674 2 640.5 -5 c 128,-1,16
 607 -12 607 -12 573 -12 c 0,17,18
 459 -12 459 -12 399 65 c 1,19,20
 325 -12 325 -12 219 -12 c 0,21,22
 126 -12 126 -12 73.5 48 c 128,-1,23
 21 108 21 108 21 203 c 0,24,25
 21 324 21 324 96 417 c 128,-1,26
 171 510 171 510 289 510 c 0,27,28
 396 510 396 510 449 431 c 1,29,30
 526 510 526 510 634 510 c 0,31,32
 702 510 702 510 744.5 480 c 128,-1,33
 787 450 787 450 787 394 c 0,0,1
664 392 m 0,34,35
 664 426 664 426 625 426 c 0,36,37
 592 426 592 426 549 389 c 128,-1,38
 506 352 506 352 490 279 c 1,39,40
 568 281 568 281 616 313.5 c 128,-1,41
 664 346 664 346 664 392 c 0,34,35
362 305 m 0,42,43
 362 428 362 428 278 428 c 0,44,45
 242 428 242 428 214.5 403.5 c 128,-1,46
 187 379 187 379 173 341 c 128,-1,47
 159 303 159 303 152.5 266.5 c 128,-1,48
 146 230 146 230 146 197 c 0,49,50
 146 68 146 68 230 68 c 0,51,52
 267 68 267 68 295 93 c 128,-1,53
 323 118 323 118 336.5 157 c 128,-1,54
 350 196 350 196 356 233 c 128,-1,55
 362 270 362 270 362 305 c 0,42,43
EndSplineSet
EndChar
StartChar: florin
Encoding: 402 402 200
Width: 520
GlyphClass: 2
Flags: W
LayerCount: 2
Back
Fore
SplineSet
670 733 m 1,0,-1
 610 654 l 1,1,2
 589 676 589 676 568.5 685 c 128,-1,3
 548 694 548 694 517 694 c 0,4,5
 475 694 475 694 439.5 657 c 128,-1,6
 404 620 404 620 387 581 c 128,-1,7
 370 542 370 542 357 497 c 1,8,-1
 475 497 l 1,9,-1
 453 414 l 1,10,-1
 335 414 l 1,11,-1
 208 -47 l 2,12,13
 157 -230 157 -230 0 -230 c 0,14,15
 -36 -230 -36 -230 -75.5 -219 c 128,-1,16
 -115 -208 -115 -208 -131 -186 c 1,17,-1
 -73 -120 l 1,18,19
 -62 -132 -62 -132 -41.5 -141.5 c 128,-1,20
 -21 -151 -21 -151 -5 -151 c 0,21,22
 65 -151 65 -151 97 -35 c 2,23,-1
 221 414 l 1,24,-1
 142 414 l 1,25,-1
 163 497 l 1,26,-1
 242 497 l 1,27,28
 259 559 259 559 281 606 c 128,-1,29
 303 653 303 653 336.5 693.5 c 128,-1,30
 370 734 370 734 419 755 c 128,-1,31
 468 776 468 776 532 776 c 0,32,33
 612 776 612 776 670 733 c 1,0,-1
EndSplineSet
EndChar
StartChar: circumflex
Encoding: 710 710 201
Width: 254
GlyphClass: 2
Flags: W
LayerCount: 2
Back
Fore
SplineSet
275 588 m 1,0,-1
 197 588 l 1,1,-1
 137 662 l 1,2,-1
 58 588 l 1,3,-1
 -18 588 l 1,4,-1
 98 733 l 1,5,-1
 196 733 l 1,6,-1
 275 588 l 1,0,-1
EndSplineSet
EndChar
StartChar: caron
Encoding: 711 711 202
Width: 275
GlyphClass: 2
Flags: W
LayerCount: 2
Back
Fore
SplineSet
295 733 m 1,0,-1
 179 588 l 1,1,-1
 81 588 l 1,2,-1
 2 733 l 1,3,-1
 80 733 l 1,4,-1
 140 659 l 1,5,-1
 219 733 l 1,6,-1
 295 733 l 1,0,-1
EndSplineSet
EndChar
StartChar: breve
Encoding: 728 728 203
Width: 256
GlyphClass: 2
Flags: W
LayerCount: 2
Back
Fore
SplineSet
300 732 m 1,0,1
 280 656 280 656 240 614 c 128,-1,2
 200 572 200 572 127 572 c 0,3,4
 64 572 64 572 30.5 607.5 c 128,-1,5
 -3 643 -3 643 -3 702 c 2,6,-1
 -1 732 l 1,7,-1
 66 732 l 1,8,9
 72 662 72 662 139 662 c 256,10,11
 206 662 206 662 231 732 c 1,12,-1
 300 732 l 1,0,1
EndSplineSet
EndChar
StartChar: ring
Encoding: 730 730 205
Width: 281
GlyphClass: 2
Flags: W
LayerCount: 2
Back
Fore
SplineSet
217 713 m 0,0,1
 249 682 249 682 249 638 c 128,-1,2
 249 594 249 594 217 562.5 c 128,-1,3
 185 531 185 531 141 531 c 256,4,5
 97 531 97 531 65.5 562.5 c 128,-1,6
 34 594 34 594 34 638 c 128,-1,7
 34 682 34 682 65.5 713.5 c 128,-1,8
 97 745 97 745 141 745 c 256,9,10
 185 745 185 745 217 713 c 0,0,1
141 678 m 0,11,12
 124 678 124 678 112 666 c 128,-1,13
 100 654 100 654 100 638 c 128,-1,14
 100 622 100 622 112 609.5 c 128,-1,15
 124 597 124 597 141 597 c 0,16,17
 157 597 157 597 169 609 c 128,-1,18
 181 621 181 621 181 638 c 128,-1,19
 181 655 181 655 169 666.5 c 128,-1,20
 157 678 157 678 141 678 c 0,11,12
EndSplineSet
EndChar
StartChar: ogonek
Encoding: 731 731 206
Width: 294
GlyphClass: 2
Flags: W
LayerCount: 2
Back
Fore
SplineSet
272 14 m 2,0,1
 269 12 269 12 241.5 -1.5 c 128,-1,2
 214 -15 214 -15 200 -23.5 c 128,-1,3
 186 -32 186 -32 165 -47 c 128,-1,4
 144 -62 144 -62 134 -77.5 c 128,-1,5
 124 -93 124 -93 124 -109 c 0,6,7
 124 -140 124 -140 161 -140 c 0,8,9
 192 -140 192 -140 249 -104 c 1,10,-1
 265 -154 l 1,11,12
 186 -211 186 -211 115 -211 c 0,13,14
 75 -211 75 -211 49 -191.5 c 128,-1,15
 23 -172 23 -172 23 -134 c 0,16,17
 23 -91 23 -91 62.5 -53 c 128,-1,18
 102 -15 102 -15 150 5.5 c 128,-1,19
 198 26 198 26 240 33 c 1,20,-1
 272 14 l 2,0,1
EndSplineSet
EndChar
StartChar: tilde
Encoding: 732 732 207
Width: 272
GlyphClass: 2
Flags: W
LayerCount: 2
Back
Fore
SplineSet
313 652 m 2,0,1
 311 649 311 649 308 644 c 128,-1,2
 305 639 305 639 293.5 626 c 128,-1,3
 282 613 282 613 269 603 c 128,-1,4
 256 593 256 593 235 585 c 128,-1,5
 214 577 214 577 192 577 c 0,6,7
 162 577 162 577 120.5 591.5 c 128,-1,8
 79 606 79 606 60 606 c 0,9,10
 39 606 39 606 8 581 c 1,11,-1
 -42 608 l 2,12,13
 -40 611 -40 611 -37 616 c 128,-1,14
 -34 621 -34 621 -22 634.5 c 128,-1,15
 -10 648 -10 648 4 658 c 128,-1,16
 18 668 18 668 40.5 676 c 128,-1,17
 63 684 63 684 88 684 c 0,18,19
 118 684 118 684 158 670 c 128,-1,20
 198 656 198 656 211 656 c 0,21,22
 230 656 230 656 267 683 c 1,23,-1
 313 652 l 2,0,1
EndSplineSet
EndChar
StartChar: pi
Encoding: 960 960 209
Width: 669
GlyphClass: 2
Flags: W
LayerCount: 2
Back
Fore
SplineSet
551 98 m 1,0,-1
 572 31 l 1,1,2
 528 -10 528 -10 464 -10 c 0,3,4
 408 -10 408 -10 382 29 c 128,-1,5
 356 68 356 68 356 128 c 0,6,7
 356 191 356 191 380 277 c 128,-1,8
 404 363 404 363 441 407 c 1,9,-1
 316 407 l 1,10,-1
 312 380 l 2,11,12
 306 335 306 335 302 309.5 c 128,-1,13
 298 284 298 284 289.5 241 c 128,-1,14
 281 198 281 198 271.5 171 c 128,-1,15
 262 144 262 144 245 109 c 128,-1,16
 228 74 228 74 207.5 51 c 128,-1,17
 187 28 187 28 157 6 c 128,-1,18
 127 -16 127 -16 91 -30 c 1,19,-1
 64 25 l 1,20,21
 105 51 105 51 133.5 92.5 c 128,-1,22
 162 134 162 134 169 181 c 2,23,-1
 194 371 l 2,24,25
 195 377 195 377 200 391 c 128,-1,26
 205 405 205 405 206 407 c 2,27,-1
 195 407 l 2,28,29
 166 407 166 407 140.5 383 c 128,-1,30
 115 359 115 359 105 326 c 1,31,-1
 44 344 l 1,32,33
 60 417 60 417 109 457 c 128,-1,34
 158 497 158 497 229 497 c 2,35,-1
 541 497 l 2,36,37
 573 497 573 497 591.5 501 c 128,-1,38
 610 505 610 505 642 520 c 1,39,-1
 666 462 l 1,40,41
 630 417 630 417 537 407 c 1,42,43
 467 235 467 235 467 150 c 0,44,45
 467 90 467 90 513 90 c 0,46,47
 530 90 530 90 551 98 c 1,0,-1
EndSplineSet
EndChar
StartChar: endash
Encoding: 8211 8211 210
Width: 551
GlyphClass: 2
Flags: W
LayerCount: 2
Back
Fore
SplineSet
521 305 m 1,0,-1
 507 211 l 1,1,-1
 31 211 l 1,2,-1
 45 305 l 1,3,-1
 521 305 l 1,0,-1
EndSplineSet
EndChar
StartChar: emdash
Encoding: 8212 8212 211
Width: 901
GlyphClass: 2
Flags: W
LayerCount: 2
Back
Fore
SplineSet
873 305 m 1,0,-1
 859 211 l 1,1,-1
 33 211 l 1,2,-1
 47 305 l 1,3,-1
 873 305 l 1,0,-1
EndSplineSet
EndChar
StartChar: quoteleft
Encoding: 8216 8216 212
Width: 242
GlyphClass: 2
Flags: W
LayerCount: 2
Back
Fore
SplineSet
209 698 m 1,0,1
 191 684 191 684 172 660.5 c 128,-1,2
 153 637 153 637 153 621 c 0,3,4
 153 615 153 615 171 593.5 c 128,-1,5
 189 572 189 572 189 546 c 0,6,7
 189 512 189 512 165.5 489.5 c 128,-1,8
 142 467 142 467 110 467 c 0,9,10
 77 467 77 467 55 489 c 128,-1,11
 33 511 33 511 33 544 c 0,12,13
 33 598 33 598 75 649.5 c 128,-1,14
 117 701 117 701 174 738 c 1,15,-1
 209 698 l 1,0,1
EndSplineSet
EndChar
StartChar: quotedblright
Encoding: 8221 8221 216
Width: 432
GlyphClass: 2
Flags: W
LayerCount: 2
Back
Fore
SplineSet
209 661 m 0,0,1
 209 606 209 606 167 555 c 128,-1,2
 125 504 125 504 68 467 c 1,3,-1
 33 506 l 1,4,5
 52 521 52 521 70.5 544.5 c 128,-1,6
 89 568 89 568 89 584 c 0,7,8
 89 590 89 590 71 611.5 c 128,-1,9
 53 633 53 633 53 659 c 0,10,11
 53 692 53 692 77 715 c 128,-1,12
 101 738 101 738 132 738 c 0,13,14
 166 738 166 738 187.5 716 c 128,-1,15
 209 694 209 694 209 661 c 0,0,1
399 661 m 0,16,17
 399 606 399 606 357 555 c 128,-1,18
 315 504 315 504 258 467 c 1,19,-1
 223 506 l 1,20,21
 242 521 242 521 260.5 544.5 c 128,-1,22
 279 568 279 568 279 584 c 0,23,24
 279 590 279 590 261 611.5 c 128,-1,25
 243 633 243 633 243 659 c 0,26,27
 243 692 243 692 267 715 c 128,-1,28
 291 738 291 738 322 738 c 0,29,30
 356 738 356 738 377.5 716 c 128,-1,31
 399 694 399 694 399 661 c 0,16,17
EndSplineSet
EndChar
StartChar: quotedblbase
Encoding: 8222 8222 217
Width: 440
GlyphClass: 2
Flags: W
LayerCount: 2
Back
Fore
SplineSet
181 62 m 0,0,1
 181 7 181 7 139 -44 c 128,-1,2
 97 -95 97 -95 40 -132 c 1,3,-1
 5 -93 l 1,4,5
 24 -78 24 -78 42.5 -54.5 c 128,-1,6
 61 -31 61 -31 61 -15 c 0,7,8
 61 -9 61 -9 43 12.5 c 128,-1,9
 25 34 25 34 25 60 c 0,10,11
 25 93 25 93 49 116 c 128,-1,12
 73 139 73 139 104 139 c 0,13,14
 138 139 138 139 159.5 117 c 128,-1,15
 181 95 181 95 181 62 c 0,0,1
371 62 m 0,16,17
 371 7 371 7 329 -44 c 128,-1,18
 287 -95 287 -95 230 -132 c 1,19,-1
 195 -93 l 1,20,21
 214 -78 214 -78 232.5 -54.5 c 128,-1,22
 251 -31 251 -31 251 -15 c 0,23,24
 251 -9 251 -9 233 12.5 c 128,-1,25
 215 34 215 34 215 60 c 0,26,27
 215 93 215 93 239 116 c 128,-1,28
 263 139 263 139 294 139 c 0,29,30
 328 139 328 139 349.5 117 c 128,-1,31
 371 95 371 95 371 62 c 0,16,17
EndSplineSet
EndChar
StartChar: dagger
Encoding: 8224 8224 218
Width: 490
GlyphClass: 2
Flags: W
LayerCount: 2
Back
Fore
SplineSet
455 481 m 1,0,-1
 388 430 l 1,1,-1
 278 452 l 1,2,-1
 283 309 l 1,3,-1
 191 -138 l 1,4,-1
 147 -138 l 1,5,-1
 172 309 l 1,6,-1
 215 452 l 1,7,-1
 101 430 l 1,8,-1
 46 485 l 1,9,-1
 116 539 l 1,10,-1
 223 514 l 1,11,-1
 217 658 l 1,12,-1
 282 740 l 1,13,-1
 331 658 l 1,14,-1
 286 514 l 1,15,-1
 402 539 l 1,16,-1
 455 481 l 1,0,-1
EndSplineSet
EndChar
StartChar: daggerdbl
Encoding: 8225 8225 219
Width: 523
GlyphClass: 2
Flags: W
LayerCount: 2
Back
Fore
SplineSet
487 481 m 1,0,-1
 420 430 l 1,1,-1
 310 452 l 1,2,-1
 316 309 l 1,3,-1
 272 145 l 1,4,-1
 382 165 l 1,5,-1
 438 112 l 1,6,-1
 367 58 l 1,7,-1
 267 83 l 1,8,-1
 267 -61 l 1,9,-1
 203 -139 l 1,10,-1
 153 -61 l 1,11,-1
 198 83 l 1,12,-1
 84 58 l 1,13,-1
 29 117 l 1,14,-1
 98 165 l 1,15,-1
 204 145 l 1,16,-1
 204 309 l 1,17,-1
 247 452 l 1,18,-1
 133 430 l 1,19,-1
 79 485 l 1,20,-1
 148 539 l 1,21,-1
 256 514 l 1,22,-1
 249 658 l 1,23,-1
 315 740 l 1,24,-1
 363 658 l 1,25,-1
 318 514 l 1,26,-1
 435 539 l 1,27,-1
 487 481 l 1,0,-1
EndSplineSet
EndChar
StartChar: bullet
Encoding: 8226 8226 220
Width: 441
GlyphClass: 2
Flags: W
LayerCount: 2
Back
Fore
SplineSet
331 467 m 0,0,1
 377 422 377 422 377 357 c 128,-1,2
 377 292 377 292 332 246.5 c 128,-1,3
 287 201 287 201 222 201 c 256,4,5
 157 201 157 201 111 246.5 c 128,-1,6
 65 292 65 292 65 357 c 128,-1,7
 65 422 65 422 110.5 467.5 c 128,-1,8
 156 513 156 513 221 513 c 256,9,10
 286 513 286 513 331 467 c 0,0,1
EndSplineSet
EndChar
StartChar: perthousand
Encoding: 8240 8240 222
Width: 1052
GlyphClass: 3
Flags: W
LayerCount: 2
Back
Fore
SplineSet
1053 245 m 0,0,1
 1053 145 1053 145 1001.5 70.5 c 128,-1,2
 950 -4 950 -4 855 -4 c 0,3,4
 783 -4 783 -4 747 40 c 128,-1,5
 711 84 711 84 711 157 c 0,6,7
 711 257 711 257 762.5 331 c 128,-1,8
 814 405 814 405 909 405 c 0,9,10
 981 405 981 405 1017 361.5 c 128,-1,11
 1053 318 1053 318 1053 245 c 0,0,1
697 245 m 0,12,13
 697 145 697 145 645.5 70.5 c 128,-1,14
 594 -4 594 -4 499 -4 c 0,15,16
 427 -4 427 -4 391 40 c 128,-1,17
 355 84 355 84 355 157 c 0,18,19
 355 257 355 257 406.5 331 c 128,-1,20
 458 405 458 405 553 405 c 0,21,22
 625 405 625 405 661 361.5 c 128,-1,23
 697 318 697 318 697 245 c 0,12,13
601 699 m 1,24,-1
 177 -12 l 1,25,-1
 110 -12 l 1,26,-1
 503 645 l 1,27,-1
 348 645 l 1,28,29
 368 608 368 608 368 554 c 0,30,31
 368 454 368 454 316.5 379 c 128,-1,32
 265 304 265 304 169 304 c 0,33,34
 98 304 98 304 61.5 348 c 128,-1,35
 25 392 25 392 25 465 c 0,36,37
 25 565 25 565 76.5 639 c 128,-1,38
 128 713 128 713 224 713 c 0,39,40
 264 713 264 713 293 699 c 1,41,-1
 601 699 l 1,24,-1
950 247 m 0,42,43
 950 326 950 326 899 326 c 0,44,45
 874 326 874 326 856.5 307 c 128,-1,46
 839 288 839 288 830 259 c 128,-1,47
 821 230 821 230 817.5 204 c 128,-1,48
 814 178 814 178 814 155 c 0,49,50
 814 75 814 75 865 75 c 0,51,52
 890 75 890 75 907.5 94 c 128,-1,53
 925 113 925 113 934 142 c 128,-1,54
 943 171 943 171 946.5 197.5 c 128,-1,55
 950 224 950 224 950 247 c 0,42,43
594 247 m 0,56,57
 594 326 594 326 543 326 c 0,58,59
 518 326 518 326 500.5 307 c 128,-1,60
 483 288 483 288 474 259 c 128,-1,61
 465 230 465 230 461.5 204 c 128,-1,62
 458 178 458 178 458 155 c 0,63,64
 458 75 458 75 509 75 c 0,65,66
 534 75 534 75 551.5 94 c 128,-1,67
 569 113 569 113 578 142 c 128,-1,68
 587 171 587 171 590.5 197.5 c 128,-1,69
 594 224 594 224 594 247 c 0,56,57
265 555 m 0,70,71
 265 634 265 634 213 634 c 0,72,73
 188 634 188 634 170.5 615.5 c 128,-1,74
 153 597 153 597 144.5 567.5 c 128,-1,75
 136 538 136 538 132.5 512 c 128,-1,76
 129 486 129 486 129 463 c 0,77,78
 129 383 129 383 180 383 c 0,79,80
 205 383 205 383 222.5 402 c 128,-1,81
 240 421 240 421 249 450 c 128,-1,82
 258 479 258 479 261.5 505.5 c 128,-1,83
 265 532 265 532 265 555 c 0,70,71
EndSplineSet
Ligature2: "Ligature Substitution lookup 5 subtable" zero fraction zero zero
Ligature2: "Ligature Substitution lookup 5 subtable" zero slash zero zero
EndChar
StartChar: guilsinglleft
Encoding: 8249 8249 223
Width: 304
GlyphClass: 2
Flags: W
LayerCount: 2
Back
Fore
SplineSet
284 490 m 1,0,-1
 143 332 l 1,1,-1
 242 173 l 1,2,-1
 165 162 l 1,3,-1
 33 332 l 1,4,-1
 209 504 l 1,5,-1
 284 490 l 1,0,-1
EndSplineSet
EndChar
StartChar: guilsinglright
Encoding: 8250 8250 224
Width: 310
GlyphClass: 2
Flags: W
LayerCount: 2
Back
Fore
SplineSet
280 332 m 1,0,-1
 100 162 l 1,1,-1
 26 173 l 1,2,-1
 171 332 l 1,3,-1
 73 490 l 1,4,-1
 152 504 l 1,5,-1
 280 332 l 1,0,-1
EndSplineSet
EndChar
StartChar: fraction
Encoding: 8260 8260 225
Width: 132
GlyphClass: 2
Flags: W
LayerCount: 2
Back
Fore
SplineSet
-96 -27 m 1,0,-1
 -175 -27 l 1,1,-1
 224 753 l 1,2,-1
 304 753 l 1,3,-1
 -96 -27 l 1,0,-1
EndSplineSet
EndChar
StartChar: Euro
Encoding: 8364 8364 226
Width: 480
GlyphClass: 2
Flags: W
LayerCount: 2
Back
Fore
SplineSet
466 35 m 1,0,1
 415 9 415 9 379 -1.5 c 128,-1,2
 343 -12 343 -12 295 -12 c 0,3,4
 209 -12 209 -12 156 36 c 128,-1,5
 103 84 103 84 96 173 c 1,6,-1
 22 173 l 1,7,-1
 29 220 l 1,8,-1
 97 220 l 1,9,10
 98 250 98 250 106 282 c 1,11,-1
 37 282 l 1,12,-1
 43 329 l 1,13,-1
 119 329 l 1,14,15
 152 417 152 417 219 463.5 c 128,-1,16
 286 510 286 510 378 510 c 0,17,18
 413 510 413 510 451 497 c 128,-1,19
 489 484 489 484 515 462 c 1,20,-1
 448 386 l 1,21,22
 404 425 404 425 357 425 c 0,23,24
 321 425 321 425 291 396.5 c 128,-1,25
 261 368 261 368 245 329 c 1,26,-1
 406 329 l 1,27,-1
 400 282 l 1,28,-1
 230 282 l 1,29,30
 222 242 222 242 222 220 c 1,31,-1
 392 220 l 1,32,-1
 385 173 l 1,33,-1
 224 173 l 1,34,35
 230 128 230 128 256 100 c 128,-1,36
 282 72 282 72 324 72 c 0,37,38
 343 72 343 72 363 80 c 128,-1,39
 383 88 383 88 395 96 c 128,-1,40
 407 104 407 104 429 121 c 1,41,-1
 466 35 l 1,0,1
EndSplineSet
EndChar
StartChar: trademark
Encoding: 8482 8482 227
Width: 568
GlyphClass: 2
Flags: W
LayerCount: 2
Back
Fore
SplineSet
523 732 m 1,0,-1
 490 497 l 1,1,-1
 431 497 l 1,2,-1
 448 625 l 1,3,4
 422 575 422 575 380 497 c 1,5,-1
 344 497 l 1,6,-1
 310 631 l 1,7,-1
 292 497 l 1,8,-1
 240 497 l 1,9,-1
 273 732 l 1,10,-1
 347 732 l 1,11,-1
 379 596 l 1,12,-1
 450 732 l 1,13,-1
 523 732 l 1,0,-1
261 732 m 1,14,-1
 255 686 l 1,15,-1
 182 686 l 1,16,-1
 156 497 l 1,17,-1
 95 497 l 1,18,-1
 122 686 l 1,19,-1
 51 686 l 1,20,-1
 57 732 l 1,21,-1
 261 732 l 1,14,-1
EndSplineSet
EndChar
StartChar: Omega
Encoding: 8486 8486 228
Width: 781
GlyphClass: 2
Flags: W
LayerCount: 2
Back
Fore
SplineSet
684 0 m 1,0,-1
 404 0 l 1,1,-1
 414 76 l 1,2,3
 458 92 458 92 492.5 132 c 128,-1,4
 527 172 527 172 545.5 222.5 c 128,-1,5
 564 273 564 273 573 323.5 c 128,-1,6
 582 374 582 374 582 422 c 0,7,8
 582 517 582 517 545 580.5 c 128,-1,9
 508 644 508 644 426 644 c 0,10,11
 376 644 376 644 334.5 618 c 128,-1,12
 293 592 293 592 267.5 551.5 c 128,-1,13
 242 511 242 511 224.5 460.5 c 128,-1,14
 207 410 207 410 200 363.5 c 128,-1,15
 193 317 193 317 193 276 c 0,16,17
 193 116 193 116 289 76 c 1,18,-1
 279 0 l 1,19,-1
 0 0 l 1,20,-1
 12 99 l 1,21,-1
 76 99 l 1,22,-1
 143 93 l 1,23,24
 103 121 103 121 79.5 182 c 128,-1,25
 56 243 56 243 56 314 c 0,26,27
 56 495 56 495 164.5 619 c 128,-1,28
 273 743 273 743 439 743 c 0,29,30
 576 743 576 743 650 659 c 128,-1,31
 724 575 724 575 724 437 c 0,32,33
 724 336 724 336 679.5 235 c 128,-1,34
 635 134 635 134 564 93 c 1,35,-1
 633 99 l 1,36,-1
 697 99 l 1,37,-1
 684 0 l 1,0,-1
EndSplineSet
EndChar
StartChar: partialdiff
Encoding: 8706 8706 229
Width: 555
GlyphClass: 2
Flags: W
LayerCount: 2
Back
Fore
SplineSet
369 385 m 1,0,1
 370 389 370 389 372 436 c 0,2,3
 372 472 372 472 366.5 505 c 128,-1,4
 361 538 361 538 348 568.5 c 128,-1,5
 335 599 335 599 310 617.5 c 128,-1,6
 285 636 285 636 250 636 c 0,7,8
 220 636 220 636 191.5 626 c 128,-1,9
 163 616 163 616 150 606 c 2,10,-1
 137 596 l 1,11,-1
 100 671 l 1,12,13
 107 679 107 679 121.5 691 c 128,-1,14
 136 703 136 703 185.5 723 c 128,-1,15
 235 743 235 743 291 743 c 0,16,17
 403 743 403 743 458.5 665.5 c 128,-1,18
 514 588 514 588 514 449 c 0,19,20
 514 339 514 339 490.5 253.5 c 128,-1,21
 467 168 467 168 432.5 120 c 128,-1,22
 398 72 398 72 353 41 c 128,-1,23
 308 10 308 10 271.5 -0.5 c 128,-1,24
 235 -11 235 -11 201 -11 c 0,25,26
 171 -11 171 -11 142 -2.5 c 128,-1,27
 113 6 113 6 84 24.5 c 128,-1,28
 55 43 55 43 37 80 c 128,-1,29
 19 117 19 117 19 167 c 0,30,31
 19 225 19 225 38 271.5 c 128,-1,32
 57 318 57 318 84.5 345.5 c 128,-1,33
 112 373 112 373 147 391 c 128,-1,34
 182 409 182 409 210.5 416 c 128,-1,35
 239 423 239 423 263 423 c 0,36,37
 282 423 282 423 299 420 c 128,-1,38
 316 417 316 417 327.5 411.5 c 128,-1,39
 339 406 339 406 346.5 401.5 c 128,-1,40
 354 397 354 397 361 391.5 c 128,-1,41
 368 386 368 386 369 385 c 1,0,1
355 293 m 1,42,43
 330 325 330 325 274 325 c 0,44,45
 242 325 242 325 216.5 309 c 128,-1,46
 191 293 191 293 177 269 c 128,-1,47
 163 245 163 245 156.5 226.5 c 128,-1,48
 150 208 150 208 148 196 c 0,49,50
 146 188 146 188 146 171 c 0,51,52
 146 88 146 88 217 88 c 0,53,54
 250 88 250 88 277.5 115 c 128,-1,55
 305 142 305 142 320.5 180.5 c 128,-1,56
 336 219 336 219 344.5 247.5 c 128,-1,57
 353 276 353 276 355 293 c 1,42,43
EndSplineSet
EndChar
StartChar: Delta
Encoding: 8710 8710 230
Width: 631
GlyphClass: 2
Flags: W
LayerCount: 2
Back
Fore
SplineSet
564 0 m 1,0,-1
 -30 0 l 1,1,-1
 -21 67 l 1,2,-1
 312 732 l 1,3,-1
 415 732 l 1,4,-1
 573 67 l 1,5,-1
 564 0 l 1,0,-1
103 99 m 1,6,-1
 424 99 l 1,7,8
 377 298 377 298 338 487 c 0,9,10
 335 505 335 505 332.5 543 c 128,-1,11
 330 581 330 581 329 586 c 1,12,13
 301 506 301 506 291 486 c 0,14,15
 171 232 171 232 103 99 c 1,6,-1
EndSplineSet
EndChar
StartChar: summation
Encoding: 8721 8721 232
Width: 726
GlyphClass: 2
Flags: W
LayerCount: 2
Back
Fore
SplineSet
670 -229 m 1,0,-1
 56 -229 l 1,1,-1
 56 -99 l 1,2,-1
 328 277 l 1,3,-1
 56 633 l 1,4,-1
 56 732 l 1,5,-1
 660 732 l 1,6,-1
 660 633 l 1,7,-1
 211 633 l 1,8,9
 256 585 256 585 260 580 c 2,10,-1
 468 310 l 1,11,-1
 216 -41 l 2,12,13
 208 -52 208 -52 190.5 -70 c 128,-1,14
 173 -88 173 -88 169 -92 c 1,15,-1
 670 -92 l 1,16,-1
 670 -229 l 1,0,-1
EndSplineSet
EndChar
StartChar: minus
Encoding: 8722 8722 233
Width: 636
GlyphClass: 2
Flags: W
LayerCount: 2
Back
Fore
SplineSet
566 205 m 1,0,-1
 70 205 l 1,1,-1
 70 293 l 1,2,-1
 566 293 l 1,3,-1
 566 205 l 1,0,-1
EndSplineSet
EndChar
StartChar: radical
Encoding: 8730 8730 234
Width: 605
GlyphClass: 2
Flags: W
LayerCount: 2
Back
Fore
SplineSet
306 -230 m 1,0,-1
 196 -230 l 1,1,-1
 56 206 l 1,2,-1
 -34 176 l 1,3,-1
 -59 257 l 1,4,-1
 131 324 l 1,5,-1
 258 -78 l 1,6,-1
 555 968 l 1,7,-1
 648 968 l 1,8,-1
 306 -230 l 1,0,-1
EndSplineSet
EndChar
StartChar: approxequal
Encoding: 8776 8776 237
Width: 657
GlyphClass: 2
Flags: W
LayerCount: 2
Back
Fore
SplineSet
513 417 m 1,0,-1
 583 372 l 1,1,2
 561 330 561 330 522.5 300 c 128,-1,3
 484 270 484 270 441 270 c 0,4,5
 392 270 392 270 320 305 c 128,-1,6
 248 340 248 340 225 340 c 0,7,8
 183 340 183 340 144 281 c 1,9,-1
 74 326 l 1,10,11
 96 368 96 368 134.5 398 c 128,-1,12
 173 428 173 428 216 428 c 0,13,14
 265 428 265 428 337 393 c 128,-1,15
 409 358 409 358 432 358 c 0,16,17
 474 358 474 358 513 417 c 1,0,-1
513 226 m 1,18,-1
 583 181 l 1,19,20
 561 139 561 139 522.5 109 c 128,-1,21
 484 79 484 79 441 79 c 0,22,23
 392 79 392 79 320 114 c 128,-1,24
 248 149 248 149 225 149 c 0,25,26
 183 149 183 149 144 90 c 1,27,-1
 74 135 l 1,28,29
 96 177 96 177 134.5 207 c 128,-1,30
 173 237 173 237 216 237 c 0,31,32
 265 237 265 237 337 202 c 128,-1,33
 409 167 409 167 432 167 c 0,34,35
 474 167 474 167 513 226 c 1,18,-1
EndSplineSet
EndChar
StartChar: notequal
Encoding: 8800 8800 238
Width: 630
GlyphClass: 2
Flags: W
LayerCount: 2
Back
Fore
SplineSet
564 109 m 1,0,-1
 293 109 l 1,1,-1
 242 0 l 1,2,-1
 147 0 l 1,3,-1
 198 109 l 1,4,-1
 66 109 l 1,5,-1
 66 197 l 1,6,-1
 239 197 l 1,7,-1
 287 302 l 1,8,-1
 66 302 l 1,9,-1
 66 390 l 1,10,-1
 328 390 l 1,11,-1
 378 497 l 1,12,-1
 476 497 l 1,13,-1
 426 390 l 1,14,-1
 564 390 l 1,15,-1
 564 302 l 1,16,-1
 384 302 l 1,17,-1
 335 197 l 1,18,-1
 564 197 l 1,19,-1
 564 109 l 1,0,-1
EndSplineSet
EndChar
StartChar: greaterequal
Encoding: 8805 8805 240
Width: 630
GlyphClass: 2
Flags: W
LayerCount: 2
Back
Fore
SplineSet
565 283 m 1,0,-1
 66 106 l 1,1,-1
 66 198 l 1,2,-1
 326 290 l 2,3,4
 378 308 378 308 431 309 c 1,5,6
 369 314 369 314 324 330 c 2,7,-1
 66 421 l 1,8,-1
 66 511 l 1,9,-1
 565 335 l 1,10,-1
 565 283 l 1,0,-1
563 1 m 1,11,-1
 67 1 l 1,12,-1
 67 89 l 1,13,-1
 563 89 l 1,14,-1
 563 1 l 1,11,-1
EndSplineSet
EndChar
StartChar: fi
Encoding: 64257 64257 242
Width: 530
GlyphClass: 3
Flags: W
LayerCount: 2
Back
Fore
SplineSet
525 631 m 1,0,-1
 413 600 l 1,1,2
 413 634 413 634 393.5 664 c 128,-1,3
 374 694 374 694 344 694 c 0,4,5
 250 694 250 694 222 497 c 1,6,-1
 509 497 l 1,7,-1
 450 55 l 1,8,-1
 452 0 l 1,9,-1
 328 0 l 1,10,-1
 384 414 l 1,11,-1
 211 414 l 1,12,-1
 149 -47 l 2,13,14
 124 -230 124 -230 -33 -230 c 0,15,16
 -70 -230 -70 -230 -110.5 -219 c 128,-1,17
 -151 -208 -151 -208 -170 -186 c 1,18,-1
 -122 -120 l 1,19,20
 -110 -132 -110 -132 -87.5 -141.5 c 128,-1,21
 -65 -151 -65 -151 -49 -151 c 0,22,23
 20 -151 20 -151 36 -35 c 2,24,-1
 97 414 l 1,25,-1
 18 414 l 1,26,-1
 28 497 l 1,27,-1
 107 497 l 1,28,29
 115 559 115 559 130 606 c 128,-1,30
 145 653 145 653 172 693 c 128,-1,31
 199 733 199 733 244 754.5 c 128,-1,32
 289 776 289 776 350 776 c 0,33,34
 370 776 370 776 394 769.5 c 128,-1,35
 418 763 418 763 445.5 748 c 128,-1,36
 473 733 473 733 495 702.5 c 128,-1,37
 517 672 517 672 525 631 c 1,0,-1
EndSplineSet
Ligature2: "'liga' Standard Ligatures lookup 2 subtable" f i
EndChar
StartChar: fl
Encoding: 64258 64258 243
Width: 529
GlyphClass: 3
Flags: W
LayerCount: 2
Back
Fore
SplineSet
549 769 m 1,0,-1
 453 54 l 1,1,-1
 456 0 l 1,2,-1
 329 0 l 1,3,-1
 411 617 l 2,4,5
 412 622 412 622 412 633 c 0,6,7
 412 694 412 694 354 694 c 0,8,9
 322 694 322 694 296.5 674 c 128,-1,10
 271 654 271 654 256.5 620.5 c 128,-1,11
 242 587 242 587 234.5 558 c 128,-1,12
 227 529 227 529 222 497 c 1,13,-1
 340 497 l 1,14,-1
 329 414 l 1,15,-1
 211 414 l 1,16,-1
 149 -47 l 2,17,18
 124 -230 124 -230 -33 -230 c 0,19,20
 -70 -230 -70 -230 -110.5 -219 c 128,-1,21
 -151 -208 -151 -208 -170 -186 c 1,22,-1
 -122 -120 l 1,23,24
 -110 -132 -110 -132 -87.5 -141.5 c 128,-1,25
 -65 -151 -65 -151 -49 -151 c 0,26,27
 20 -151 20 -151 36 -35 c 2,28,-1
 97 414 l 1,29,-1
 18 414 l 1,30,-1
 28 497 l 1,31,-1
 107 497 l 1,32,33
 115 559 115 559 130.5 606 c 128,-1,34
 146 653 146 653 173.5 693 c 128,-1,35
 201 733 201 733 247.5 754.5 c 128,-1,36
 294 776 294 776 357 776 c 0,37,38
 378 776 378 776 406.5 766.5 c 128,-1,39
 435 757 435 757 452 745 c 1,40,-1
 549 769 l 1,0,-1
EndSplineSet
Ligature2: "'liga' Standard Ligatures lookup 3 subtable" f l
EndChar
